<svg id="Group_126" data-name="Group 126" xmlns="http://www.w3.org/2000/svg" width="163.632" height="53.52" viewBox="0 0 163.632 53.52">
  <path id="Path_90" data-name="Path 90" d="M163.632,46.29a7.222,7.222,0,0,1-7.23,7.23H7.23A7.222,7.222,0,0,1,0,46.29V7.23A7.222,7.222,0,0,1,7.23,0H156.4a7.222,7.222,0,0,1,7.23,7.23Z"/>
  <path id="Path_91" data-name="Path 91" d="M53.887,28.6H40.579A2.867,2.867,0,0,0,37.7,31.479V61.038a2.867,2.867,0,0,0,2.879,2.879h13.34A2.867,2.867,0,0,0,56.8,61.038V31.511A2.922,2.922,0,0,0,53.887,28.6ZM47.233,61.806a1.919,1.919,0,1,1,1.919-1.919A1.925,1.925,0,0,1,47.233,61.806Zm7.294-4.8H39.939V35.222H54.5V57.008Z" transform="translate(-25.64 -19.451)" fill="#fff"/>
  <g id="Group_30" data-name="Group 30" transform="translate(40.212 8.637)">
    <path id="Path_92" data-name="Path 92" d="M127.555,33.742l-.8,2.463H125.7l2.655-7.806h1.216l2.655,7.806h-1.088l-.832-2.463Zm2.559-.8-.768-2.239c-.16-.512-.288-.96-.384-1.408h-.032a13.32,13.32,0,0,1-.384,1.408l-.768,2.271h2.335Z" transform="translate(-125.7 -27.952)" fill="#fff"/>
    <path id="Path_93" data-name="Path 93" d="M147.088,35.2l1.088,3.135a10.423,10.423,0,0,1,.448,1.44h.032q.192-.672.48-1.44l1.088-3.135h1.056l-2.207,5.6h-.96L146,35.2Z" transform="translate(-139.506 -32.577)" fill="#fff"/>
    <path id="Path_94" data-name="Path 94" d="M167.815,39.251a8.55,8.55,0,0,0,.1,1.344h-.928l-.1-.7h-.032a2.057,2.057,0,0,1-1.727.832,1.616,1.616,0,0,1-1.727-1.6c0-1.344,1.216-2.079,3.359-2.079v-.128a1.14,1.14,0,0,0-1.28-1.28,2.74,2.74,0,0,0-1.472.416l-.224-.672a3.619,3.619,0,0,1,1.855-.48c1.727,0,2.143,1.184,2.143,2.3v2.047Zm-.992-1.5c-1.12-.032-2.367.16-2.367,1.248a.889.889,0,0,0,.96.96,1.4,1.4,0,0,0,1.376-.928,1.088,1.088,0,0,0,.032-.32Z" transform="translate(-151.34 -32.373)" fill="#fff"/>
    <path id="Path_95" data-name="Path 95" d="M182.24,29.212a.656.656,0,1,1,.032-1.312.622.622,0,0,1,.64.64.638.638,0,0,1-.672.672Zm-.48,6.622v-5.6h1.024v5.6Z" transform="translate(-163.717 -27.612)" fill="#fff"/>
    <path id="Path_96" data-name="Path 96" d="M190.4,27h1.024v8.222H190.4Z" transform="translate(-169.702 -27)" fill="#fff"/>
    <path id="Path_97" data-name="Path 97" d="M201.615,39.251a8.552,8.552,0,0,0,.1,1.344h-.928l-.1-.7h-.032a2.057,2.057,0,0,1-1.727.832,1.616,1.616,0,0,1-1.727-1.6c0-1.344,1.216-2.079,3.359-2.079v-.128a1.14,1.14,0,0,0-1.28-1.28,2.74,2.74,0,0,0-1.472.416l-.224-.672a3.619,3.619,0,0,1,1.855-.48c1.727,0,2.143,1.184,2.143,2.3v2.047Zm-.992-1.5c-1.12-.032-2.367.16-2.367,1.248a.889.889,0,0,0,.96.96,1.4,1.4,0,0,0,1.376-.928,1.087,1.087,0,0,0,.032-.32Z" transform="translate(-174.327 -32.373)" fill="#fff"/>
    <path id="Path_98" data-name="Path 98" d="M215.832,27h1.024v3.519h.032a2.036,2.036,0,0,1,1.919-1.024c1.376,0,2.367,1.152,2.367,2.847,0,2.015-1.28,3.007-2.527,3.007a2.067,2.067,0,0,1-1.887-1.056h-.032l-.064.928H215.8c.032-.384.032-.96.032-1.44Zm1.024,5.982a1.557,1.557,0,0,0,.032.384,1.576,1.576,0,0,0,1.536,1.184c1.088,0,1.7-.864,1.7-2.143,0-1.12-.576-2.079-1.663-2.079a1.591,1.591,0,0,0-1.536,1.248,1.62,1.62,0,0,0-.064.416Z" transform="translate(-186.977 -27)" fill="#fff"/>
    <path id="Path_99" data-name="Path 99" d="M236.3,27h1.024v8.222H236.3Z" transform="translate(-200.918 -27)" fill="#fff"/>
    <path id="Path_100" data-name="Path 100" d="M244.292,37.835a1.8,1.8,0,0,0,1.919,1.951,3.515,3.515,0,0,0,1.536-.288l.192.7a4.648,4.648,0,0,1-1.887.352,2.6,2.6,0,0,1-2.751-2.815c0-1.7.992-3.039,2.655-3.039a2.358,2.358,0,0,1,2.3,2.623,1.841,1.841,0,0,1-.032.48Zm2.975-.736c0-.64-.256-1.664-1.408-1.664a1.693,1.693,0,0,0-1.568,1.664Z" transform="translate(-205.679 -32.237)" fill="#fff"/>
    <path id="Path_101" data-name="Path 101" d="M271.487,40.654a2.676,2.676,0,0,1-2.687-2.879,2.741,2.741,0,0,1,2.783-2.975,2.658,2.658,0,0,1,2.687,2.879,2.735,2.735,0,0,1-2.783,2.975Zm.032-.768c.96,0,1.7-.928,1.7-2.175,0-.96-.48-2.143-1.664-2.143s-1.727,1.12-1.727,2.175c0,1.248.7,2.143,1.7,2.143Z" transform="translate(-223.022 -32.305)" fill="#fff"/>
    <path id="Path_102" data-name="Path 102" d="M289.564,36.532a10.867,10.867,0,0,0-.064-1.5h.9l.064.928h.032a2.118,2.118,0,0,1,1.855-1.056c.768,0,1.983.448,1.983,2.4v3.359h-1.024v-3.3c0-.9-.32-1.664-1.312-1.664a1.478,1.478,0,0,0-1.376,1.056,2.175,2.175,0,0,0-.064.48v3.391h-1.024V36.532Z" transform="translate(-237.1 -32.373)" fill="#fff"/>
    <path id="Path_103" data-name="Path 103" d="M317.055,31v1.344h1.472v.768h-1.472v3.007c0,.7.192,1.088.768,1.088a2.181,2.181,0,0,0,.576-.064l.032.768a2.966,2.966,0,0,1-.9.128,1.418,1.418,0,0,1-1.088-.416,2.133,2.133,0,0,1-.384-1.472V33.079H315.2v-.768h.864V31.32Z" transform="translate(-254.578 -29.72)" fill="#fff"/>
    <path id="Path_104" data-name="Path 104" d="M328.9,27h1.024v3.519h.032a1.74,1.74,0,0,1,.736-.7,1.935,1.935,0,0,1,1.056-.288c.736,0,1.951.448,1.951,2.4v3.327h-1.024V32.023c0-.928-.352-1.664-1.312-1.664a1.449,1.449,0,0,0-1.376,1.024,1.092,1.092,0,0,0-.064.48v3.391H328.9Z" transform="translate(-263.895 -27)" fill="#fff"/>
    <path id="Path_105" data-name="Path 105" d="M348.492,37.9a1.8,1.8,0,0,0,1.919,1.951,3.791,3.791,0,0,0,1.568-.288l.16.736a4.649,4.649,0,0,1-1.887.352,2.6,2.6,0,0,1-2.751-2.815c0-1.7.992-3.039,2.623-3.039a2.358,2.358,0,0,1,2.3,2.623,1.841,1.841,0,0,1-.032.48Zm2.975-.736c0-.64-.256-1.664-1.408-1.664a1.693,1.693,0,0,0-1.568,1.664Z" transform="translate(-276.545 -32.305)" fill="#fff"/>
    <path id="Path_106" data-name="Path 106" d="M374.44,29.212a.656.656,0,1,1,.032-1.312.622.622,0,0,1,.64.64.638.638,0,0,1-.672.672Zm-.512,6.622v-5.6h1.024v5.6Z" transform="translate(-294.432 -27.612)" fill="#fff"/>
    <path id="Path_107" data-name="Path 107" d="M382.6,28.36a9.995,9.995,0,0,1,1.919-.16,3.154,3.154,0,0,1,2.175.64,2.159,2.159,0,0,1,.7,1.632,2.355,2.355,0,0,1-.608,1.664,3.243,3.243,0,0,1-2.4.864,3.118,3.118,0,0,1-.8-.064V36.07H382.6Zm1.024,3.743a3.128,3.128,0,0,0,.832.1c1.216,0,1.951-.608,1.951-1.664S385.671,29,384.551,29a3.367,3.367,0,0,0-.96.1V32.1Z" transform="translate(-300.416 -27.816)" fill="#fff"/>
    <path id="Path_108" data-name="Path 108" d="M401.4,27h1.024v3.519h.032a1.739,1.739,0,0,1,.736-.7,1.935,1.935,0,0,1,1.056-.288c.768,0,1.951.448,1.951,2.4v3.327h-1.024V32.023c0-.928-.352-1.664-1.312-1.664a1.449,1.449,0,0,0-1.376,1.024,1.092,1.092,0,0,0-.064.48v3.391H401.4Z" transform="translate(-313.202 -27)" fill="#fff"/>
    <path id="Path_109" data-name="Path 109" d="M422.687,40.654A2.676,2.676,0,0,1,420,37.775a2.741,2.741,0,0,1,2.783-2.975,2.658,2.658,0,0,1,2.687,2.879,2.719,2.719,0,0,1-2.783,2.975Zm.032-.768c.96,0,1.7-.928,1.7-2.175,0-.96-.48-2.143-1.664-2.143s-1.727,1.12-1.727,2.175c.032,1.248.7,2.143,1.7,2.143Z" transform="translate(-325.852 -32.305)" fill="#fff"/>
    <path id="Path_110" data-name="Path 110" d="M440.932,36.532c0-.576,0-1.056-.032-1.5h.9l.064.928h.032a2.119,2.119,0,0,1,1.855-1.056c.768,0,1.983.448,1.983,2.4v3.359h-1.024v-3.3c0-.9-.352-1.664-1.312-1.664a1.478,1.478,0,0,0-1.376,1.056,2.177,2.177,0,0,0-.064.48v3.391h-1.024Z" transform="translate(-340.066 -32.373)" fill="#fff"/>
    <path id="Path_111" data-name="Path 111" d="M460.592,37.835a1.8,1.8,0,0,0,1.919,1.951,3.514,3.514,0,0,0,1.535-.288l.192.7a4.648,4.648,0,0,1-1.887.352,2.6,2.6,0,0,1-2.751-2.815c0-1.7.992-3.039,2.623-3.039a2.358,2.358,0,0,1,2.3,2.623,1.842,1.842,0,0,1-.032.48Zm2.975-.736c0-.64-.256-1.664-1.408-1.664a1.693,1.693,0,0,0-1.568,1.664Z" transform="translate(-352.784 -32.237)" fill="#fff"/>
  </g>
  <g id="Group_31" data-name="Group 31" transform="translate(39.988 21.818)">
    <path id="Path_112" data-name="Path 112" d="M131.878,69.3,125,89.486h3.135l2.047-6.206h6.654l2.111,6.206h3.231L135.3,69.3h-3.423Zm1.632,3.3c.224.9.48,1.823.8,2.847l1.855,5.342h-5.278l1.823-5.406C133,74.546,133.254,73.587,133.51,72.6Z" transform="translate(-125 -68.948)" fill="#fff"/>
    <path id="Path_113" data-name="Path 113" d="M189.974,85.6a5.723,5.723,0,0,0-4.863,2.335l-.128-2.015H182.2l.032.256c.1,1.248.128,2.623.128,4.607v15.579h3.071V99.1a5.441,5.441,0,0,0,4.191,1.791,6.31,6.31,0,0,0,4.639-1.983,8.336,8.336,0,0,0,2.047-5.886,8.073,8.073,0,0,0-1.791-5.374A6.046,6.046,0,0,0,189.974,85.6Zm-.768,2.527c2.719,0,3.935,2.527,3.935,5.023,0,3.231-1.568,5.214-4.063,5.214a3.721,3.721,0,0,1-3.615-2.847,4.333,4.333,0,0,1-.1-.992V92.062c0-.224.064-.48.1-.768,0-.1.032-.16.032-.256A3.918,3.918,0,0,1,189.206,88.127Z" transform="translate(-163.901 -80.034)" fill="#fff"/>
    <path id="Path_114" data-name="Path 114" d="M239.174,85.6a5.723,5.723,0,0,0-4.863,2.335l-.128-2.015H231.4v.256c.1,1.248.128,2.623.128,4.607v15.579H234.6V99.1a5.441,5.441,0,0,0,4.191,1.791,6.31,6.31,0,0,0,4.639-1.983,8.336,8.336,0,0,0,2.047-5.886,8.073,8.073,0,0,0-1.791-5.374A5.929,5.929,0,0,0,239.174,85.6Zm-.768,2.527c2.719,0,3.935,2.527,3.935,5.023,0,3.231-1.568,5.214-4.063,5.214a3.721,3.721,0,0,1-3.615-2.847,4.331,4.331,0,0,1-.1-.992V92.062c0-.224.064-.48.1-.768,0-.1.032-.16.032-.256A3.918,3.918,0,0,1,238.406,88.127Z" transform="translate(-197.362 -80.034)" fill="#fff"/>
    <path id="Path_115" data-name="Path 115" d="M301.862,77.093c-2.847-1.12-3.775-1.983-3.775-3.583,0-1.344,1.088-2.719,3.487-2.719a7.064,7.064,0,0,1,3.583.9l.256.16.864-2.559-.16-.1a9.06,9.06,0,0,0-4.447-.992c-3.9,0-6.622,2.3-6.622,5.6,0,2.655,1.7,4.511,5.374,5.854,2.591.96,3.551,1.951,3.551,3.679,0,1.919-1.5,3.135-3.871,3.135a8.349,8.349,0,0,1-4.415-1.248l-.256-.16-.832,2.623.16.1a10.48,10.48,0,0,0,5.15,1.344c5.246,0,7.1-3.2,7.1-5.95C307.012,80.292,305.541,78.533,301.862,77.093Z" transform="translate(-240.344 -68.2)" fill="#fff"/>
    <path id="Path_116" data-name="Path 116" d="M339.514,75.7l-3.007.928v2.527H334.3v2.431h2.207v7.486a5.717,5.717,0,0,0,1.056,3.871,3.924,3.924,0,0,0,2.943,1.152,7.594,7.594,0,0,0,2.367-.352l.16-.064-.16-2.431-.288.1a4.248,4.248,0,0,1-1.408.16c-1.184,0-1.7-.736-1.7-2.5V81.65h3.679V79.219h-3.679V75.7Z" transform="translate(-267.344 -73.301)" fill="#fff"/>
    <path id="Path_117" data-name="Path 117" d="M370.362,85.6c-4.287,0-7.262,3.2-7.262,7.774,0,4.447,2.879,7.518,7.038,7.518h.032c3.487,0,7.262-2.431,7.262-7.774a7.73,7.73,0,0,0-1.951-5.406A6.772,6.772,0,0,0,370.362,85.6Zm-.1,2.431c2.751,0,4,2.687,4,5.182,0,3.071-1.7,5.278-4.063,5.278h-.032c-2.3,0-4-2.175-4-5.214C366.2,90.654,367.451,88.031,370.266,88.031Z" transform="translate(-286.931 -80.034)" fill="#fff"/>
    <path id="Path_118" data-name="Path 118" d="M420.846,85.828l-.192-.032a2.969,2.969,0,0,0-.768-.1,4.343,4.343,0,0,0-3.839,2.463l-.1-2.143H413.2l.032.256c.1,1.216.128,2.559.128,4.415l-.032,9.981H416.4V92.834a6.83,6.83,0,0,1,.1-1.184,3.385,3.385,0,0,1,3.231-3.071,6.754,6.754,0,0,1,.832.064l.32.032V85.828Z" transform="translate(-321.003 -80.102)" fill="#fff"/>
    <path id="Path_119" data-name="Path 119" d="M443.91,85.5c-4.063,0-6.91,3.263-6.91,7.9,0,4.479,2.815,7.39,7.2,7.39a11.756,11.756,0,0,0,4.831-.928l.192-.1-.576-2.271-.256.1a9.344,9.344,0,0,1-3.839.672,4.252,4.252,0,0,1-4.575-4.447l9.853.032.032-.192a6.717,6.717,0,0,0,.1-1.28C449.988,89.243,448.389,85.5,443.91,85.5Zm-.192,2.335a2.964,2.964,0,0,1,2.239.864,4.507,4.507,0,0,1,1.056,2.847h-6.974C440.327,89.755,441.415,87.835,443.718,87.835Z" transform="translate(-337.19 -79.966)" fill="#fff"/>
  </g>
</svg>
