<svg xmlns="http://www.w3.org/2000/svg" width="185" height="60" viewBox="0 0 185 60" fill="none"><g clip-path="url(#clip0_2010_3553)"><path d="M77.0667 48.3393H78.3949C81.258 48.3393 82.3635 49.089 82.9123 49.4878C83.5168 49.9184 84.9086 51.0987 84.9086 53.5152C84.9086 55.9317 83.4929 57.9972 80.1605 57.9972C77.3212 57.9972 77.0667 56.4182 77.0667 54.8391V48.3393ZM77.0667 39.0563C77.4166 39.0005 77.9336 38.8888 78.5698 38.8888C81.2342 38.8888 83.0873 40.8108 83.0873 43.6021C83.0873 47.1989 80.1366 47.5658 78.2517 47.5658H77.0667V39.0563ZM71.5949 58.4917V58.7788H81.3217C83.8985 58.7788 85.6641 58.061 86.8253 57.0243C87.9547 55.9875 88.4716 54.6397 88.4716 53.4036C88.4716 51.2742 87.1355 48.4271 82.4192 47.8289V47.7731C86.531 46.7682 86.531 43.6021 86.531 43.2034C86.531 42.3979 86.3004 41.1378 85.1949 40.0452C84.1212 38.9765 82.2124 38.1152 78.8243 38.1152H71.5869V38.4023C72.4538 38.4023 73.957 38.6017 73.957 40.8188V56.139C73.957 58.0929 72.4538 58.4997 71.5869 58.4997" fill="#142238"></path><path d="M77.0667 48.3393H78.3949C81.258 48.3393 82.3635 49.089 82.9123 49.4878C83.5168 49.9184 84.9086 51.0987 84.9086 53.5152C84.9086 55.9317 83.4929 57.9972 80.1605 57.9972C77.3212 57.9972 77.0667 56.4182 77.0667 54.8391V48.3393ZM77.0667 39.0563C77.4166 39.0005 77.9336 38.8888 78.5698 38.8888C81.2342 38.8888 83.0873 40.8108 83.0873 43.6021C83.0873 47.1989 80.1366 47.5658 78.2517 47.5658H77.0667V39.0563ZM71.5949 58.4917V58.7788H81.3217C83.8985 58.7788 85.6641 58.061 86.8253 57.0243C87.9547 55.9875 88.4716 54.6397 88.4716 53.4036C88.4716 51.2742 87.1355 48.4271 82.4192 47.8289V47.7731C86.531 46.7682 86.531 43.6021 86.531 43.2034C86.531 42.3979 86.3004 41.1378 85.1949 40.0452C84.1212 38.9765 82.2124 38.1152 78.8243 38.1152H71.5869V38.4023C72.4538 38.4023 73.957 38.6017 73.957 40.8188V56.139C73.957 58.0929 72.4538 58.4997 71.5869 58.4997" fill="black" fill-opacity="0.2"></path><path d="M90.6509 58.4831V58.7702H98.4371V58.4831C97.5702 58.4591 96.0909 58.3714 96.0909 56.1224V40.7145C96.0909 38.5612 97.5702 38.4416 98.4371 38.3857V38.0986H90.6509V38.3857C91.5496 38.4416 92.9971 38.5612 92.9971 40.7145V56.1224C92.9971 58.3395 91.5178 58.4512 90.6509 58.4831Z" fill="#142238"></path><path d="M90.6509 58.4831V58.7702H98.4371V58.4831C97.5702 58.4591 96.0909 58.3714 96.0909 56.1224V40.7145C96.0909 38.5612 97.5702 38.4416 98.4371 38.3857V38.0986H90.6509V38.3857C91.5496 38.4416 92.9971 38.5612 92.9971 40.7145V56.1224C92.9971 58.3395 91.5178 58.4512 90.6509 58.4831Z" fill="black" fill-opacity="0.2"></path><path d="M119.609 59.2884H119.959V40.7223C119.959 38.5929 121.374 38.4494 122.329 38.3936V38.1064H116.571V38.3936C117.493 38.4494 118.941 38.5929 118.941 40.7223V53.945L104.641 38.1064H99.5508V38.3936C100.187 38.4494 101.03 38.5052 102.239 39.9168C102.271 39.9726 102.326 40.0045 102.358 40.0285L103.17 40.9456V56.1223C103.17 58.3393 101.69 58.451 100.823 58.4829V58.77H106.526V58.4829C105.659 58.451 104.18 58.3712 104.18 56.1223V42.0382L119.609 59.2884Z" fill="#142238"></path><path d="M119.609 59.2884H119.959V40.7223C119.959 38.5929 121.374 38.4494 122.329 38.3936V38.1064H116.571V38.3936C117.493 38.4494 118.941 38.5929 118.941 40.7223V53.945L104.641 38.1064H99.5508V38.3936C100.187 38.4494 101.03 38.5052 102.239 39.9168C102.271 39.9726 102.326 40.0045 102.358 40.0285L103.17 40.9456V56.1223C103.17 58.3393 101.69 58.451 100.823 58.4829V58.77H106.526V58.4829C105.659 58.451 104.18 58.3712 104.18 56.1223V42.0382L119.609 59.2884Z" fill="black" fill-opacity="0.2"></path><path d="M139.762 41.6715C139.85 41.5279 141.265 39.4305 142.307 38.8244C142.856 38.5054 143.437 38.4495 144.105 38.3937V38.1066H137.822V38.3937C138.291 38.4256 139.555 38.4814 139.555 39.4544C139.555 39.9409 139.118 40.8341 138.601 41.6077C138.569 41.6635 138.514 41.7193 138.514 41.7193L135.038 46.9829L131.332 41.177C131.069 40.7464 130.64 40.0525 130.64 39.5342C130.64 38.3857 131.801 38.3857 132.318 38.3857V38.0986H123.951V38.3857C125.542 38.3857 126.409 39.3029 126.846 39.909C127.427 40.7145 127.482 40.8022 127.514 40.858C127.546 40.8899 127.602 40.9458 127.602 40.9697L132.374 48.3307V56.1224C132.374 58.2757 131.014 58.4831 130.027 58.4831V58.7702H137.814V58.4831C136.509 58.4831 135.467 58.2837 135.467 56.1224V48.1872L139.754 41.6635L139.762 41.6715Z" fill="#142238"></path><path d="M139.762 41.6715C139.85 41.5279 141.265 39.4305 142.307 38.8244C142.856 38.5054 143.437 38.4495 144.105 38.3937V38.1066H137.822V38.3937C138.291 38.4256 139.555 38.4814 139.555 39.4544C139.555 39.9409 139.118 40.8341 138.601 41.6077C138.569 41.6635 138.514 41.7193 138.514 41.7193L135.038 46.9829L131.332 41.177C131.069 40.7464 130.64 40.0525 130.64 39.5342C130.64 38.3857 131.801 38.3857 132.318 38.3857V38.0986H123.951V38.3857C125.542 38.3857 126.409 39.3029 126.846 39.909C127.427 40.7145 127.482 40.8022 127.514 40.858C127.546 40.8899 127.602 40.9458 127.602 40.9697L132.374 48.3307V56.1224C132.374 58.2757 131.014 58.4831 130.027 58.4831V58.7702H137.814V58.4831C136.509 58.4831 135.467 58.2837 135.467 56.1224V48.1872L139.754 41.6635L139.762 41.6715Z" fill="black" fill-opacity="0.2"></path><path d="M147.882 49.3436L150.777 40.3157H150.833L153.903 49.3436H147.882ZM154.245 58.4831V58.7702H162.325V58.4831C161.077 58.3156 160.067 57.9647 159.144 55.2611L153.123 37.8115H150.547L144.82 55.6678C144.391 56.9917 143.58 58.3714 141.87 58.4831V58.7702H147.429V58.4831C146.936 58.4591 145.695 58.3714 145.695 56.8163C145.695 56.4972 145.814 55.7795 146.045 55.0936L147.58 50.3484H154.269L156.003 55.4366C156.321 56.3537 156.352 56.6727 156.352 56.9279C156.352 58.4272 154.929 58.4512 154.269 58.4831" fill="#142238"></path><path d="M147.882 49.3436L150.777 40.3157H150.833L153.903 49.3436H147.882ZM154.245 58.4831V58.7702H162.325V58.4831C161.077 58.3156 160.067 57.9647 159.144 55.2611L153.123 37.8115H150.547L144.82 55.6678C144.391 56.9917 143.58 58.3714 141.87 58.4831V58.7702H147.429V58.4831C146.936 58.4591 145.695 58.3714 145.695 56.8163C145.695 56.4972 145.814 55.7795 146.045 55.0936L147.58 50.3484H154.269L156.003 55.4366C156.321 56.3537 156.352 56.6727 156.352 56.9279C156.352 58.4272 154.929 58.4512 154.269 58.4831" fill="black" fill-opacity="0.2"></path><path d="M185 38.3936V38.1064H177.182V38.3936C178.192 38.3936 179.528 38.6807 179.528 40.7542V47.3337H168.672V40.7542C168.672 38.6807 170.056 38.3936 171.018 38.3936V38.1064H163.232V38.3936C164.329 38.3936 165.578 38.6807 165.578 40.7542V56.1302C165.578 58.0522 164.449 58.4909 163.232 58.4909V58.778H171.018V58.4909C169.714 58.4909 168.672 58.0602 168.672 56.1302V48.3385H179.528V56.1302C179.528 58.0522 178.399 58.4909 177.182 58.4909V58.778H185V58.4909C183.815 58.4909 182.63 58.0602 182.63 56.1302V40.7542C182.63 38.6807 183.99 38.3936 185 38.3936Z" fill="#142238"></path><path d="M185 38.3936V38.1064H177.182V38.3936C178.192 38.3936 179.528 38.6807 179.528 40.7542V47.3337H168.672V40.7542C168.672 38.6807 170.056 38.3936 171.018 38.3936V38.1064H163.232V38.3936C164.329 38.3936 165.578 38.6807 165.578 40.7542V56.1302C165.578 58.0522 164.449 58.4909 163.232 58.4909V58.778H171.018V58.4909C169.714 58.4909 168.672 58.0602 168.672 56.1302V48.3385H179.528V56.1302C179.528 58.0522 178.399 58.4909 177.182 58.4909V58.778H185V58.4909C183.815 58.4909 182.63 58.0602 182.63 56.1302V40.7542C182.63 38.6807 183.99 38.3936 185 38.3936Z" fill="black" fill-opacity="0.2"></path><path d="M85.1788 8.51898C85.5924 8.13618 85.7992 7.6497 85.7992 7.04359C85.7992 6.43748 85.5924 5.93504 85.1868 5.54426C84.7732 5.15348 84.2722 4.9541 83.6598 4.9541C83.0474 4.9541 82.5543 5.15348 82.1487 5.55224C81.7351 5.95099 81.5283 6.44545 81.5283 7.04359C81.5283 7.64172 81.7351 8.14415 82.1407 8.51898C82.5463 8.90179 83.0553 9.09319 83.6677 9.09319C84.2801 9.09319 84.7732 8.90179 85.1868 8.51898" fill="#142238"></path><path d="M85.1788 8.51898C85.5924 8.13618 85.7992 7.6497 85.7992 7.04359C85.7992 6.43748 85.5924 5.93504 85.1868 5.54426C84.7732 5.15348 84.2722 4.9541 83.6598 4.9541C83.0474 4.9541 82.5543 5.15348 82.1487 5.55224C81.7351 5.95099 81.5283 6.44545 81.5283 7.04359C81.5283 7.64172 81.7351 8.14415 82.1407 8.51898C82.5463 8.90179 83.0553 9.09319 83.6677 9.09319C84.2801 9.09319 84.7732 8.90179 85.1868 8.51898" fill="black" fill-opacity="0.2"></path><path d="M79.7869 8.51898C80.2005 8.13618 80.4073 7.6497 80.4073 7.04359C80.4073 6.43748 80.2005 5.93504 79.7949 5.54426C79.3892 5.15348 78.8802 4.9541 78.2678 4.9541C77.6554 4.9541 77.1623 5.15348 76.7488 5.55224C76.3352 5.95099 76.1284 6.44545 76.1284 7.04359C76.1284 7.64172 76.3352 8.14415 76.7408 8.51898C77.1464 8.90179 77.6554 9.09319 78.2678 9.09319C78.8802 9.09319 79.3733 8.90179 79.7869 8.51898Z" fill="#142238"></path><path d="M79.7869 8.51898C80.2005 8.13618 80.4073 7.6497 80.4073 7.04359C80.4073 6.43748 80.2005 5.93504 79.7949 5.54426C79.3892 5.15348 78.8802 4.9541 78.2678 4.9541C77.6554 4.9541 77.1623 5.15348 76.7488 5.55224C76.3352 5.95099 76.1284 6.44545 76.1284 7.04359C76.1284 7.64172 76.3352 8.14415 76.7408 8.51898C77.1464 8.90179 77.6554 9.09319 78.2678 9.09319C78.8802 9.09319 79.3733 8.90179 79.7869 8.51898Z" fill="black" fill-opacity="0.2"></path><path d="M117.445 31.1129C117.859 30.7221 118.065 30.2356 118.065 29.6455C118.065 29.0553 117.859 28.5369 117.453 28.1382C117.047 27.7394 116.538 27.54 115.926 27.54C115.314 27.54 114.821 27.7474 114.407 28.1462C113.993 28.5529 113.787 29.0473 113.787 29.6455C113.787 30.2436 113.993 30.746 114.399 31.1209C114.805 31.5037 115.314 31.6951 115.926 31.6951C116.538 31.6951 117.024 31.5037 117.445 31.1129Z" fill="#142238"></path><path d="M117.445 31.1129C117.859 30.7221 118.065 30.2356 118.065 29.6455C118.065 29.0553 117.859 28.5369 117.453 28.1382C117.047 27.7394 116.538 27.54 115.926 27.54C115.314 27.54 114.821 27.7474 114.407 28.1462C113.993 28.5529 113.787 29.0473 113.787 29.6455C113.787 30.2436 113.993 30.746 114.399 31.1209C114.805 31.5037 115.314 31.6951 115.926 31.6951C116.538 31.6951 117.024 31.5037 117.445 31.1129Z" fill="black" fill-opacity="0.2"></path><path d="M112.506 31.1129C112.92 30.7221 113.127 30.2356 113.127 29.6455C113.127 29.0553 112.92 28.5369 112.514 28.1382C112.101 27.7394 111.6 27.54 110.987 27.54C110.375 27.54 109.882 27.7474 109.476 28.1462C109.063 28.5529 108.856 29.0473 108.856 29.6455C108.856 30.2436 109.063 30.746 109.468 31.1209C109.874 31.5037 110.383 31.6951 110.995 31.6951C111.608 31.6951 112.101 31.5037 112.514 31.1129" fill="#142238"></path><path d="M112.506 31.1129C112.92 30.7221 113.127 30.2356 113.127 29.6455C113.127 29.0553 112.92 28.5369 112.514 28.1382C112.101 27.7394 111.6 27.54 110.987 27.54C110.375 27.54 109.882 27.7474 109.476 28.1462C109.063 28.5529 108.856 29.0473 108.856 29.6455C108.856 30.2436 109.063 30.746 109.468 31.1209C109.874 31.5037 110.383 31.6951 110.995 31.6951C111.608 31.6951 112.101 31.5037 112.514 31.1129" fill="black" fill-opacity="0.2"></path><path d="M149.704 8.47911C150.117 8.08833 150.324 7.60184 150.324 7.01168C150.324 6.42152 150.117 5.90314 149.712 5.50438C149.298 5.10563 148.797 4.90625 148.185 4.90625C147.572 4.90625 147.079 5.1136 146.674 5.51236C146.26 5.91909 146.053 6.41355 146.053 7.01168C146.053 7.60982 146.26 8.11225 146.666 8.49506C147.071 8.87786 147.58 9.06927 148.193 9.06927C148.805 9.06927 149.298 8.87786 149.712 8.48708" fill="#142238"></path><path d="M149.704 8.47911C150.117 8.08833 150.324 7.60184 150.324 7.01168C150.324 6.42152 150.117 5.90314 149.712 5.50438C149.298 5.10563 148.797 4.90625 148.185 4.90625C147.572 4.90625 147.079 5.1136 146.674 5.51236C146.26 5.91909 146.053 6.41355 146.053 7.01168C146.053 7.60982 146.26 8.11225 146.666 8.49506C147.071 8.87786 147.58 9.06927 148.193 9.06927C148.805 9.06927 149.298 8.87786 149.712 8.48708" fill="black" fill-opacity="0.2"></path><path d="M85.195 22.2767C84.4315 23.465 83.2862 24.0551 81.7751 24.0551C80.264 24.0551 79.1108 23.457 78.3234 22.2607C77.6554 21.2559 77.3213 19.9639 77.3213 18.3928C77.3213 16.8217 77.6474 15.5058 78.3075 14.4929C79.0869 13.2967 80.2322 12.6985 81.7433 12.6985C83.2544 12.6985 84.4076 13.2887 85.1791 14.477C85.8392 15.4739 86.1653 16.7818 86.1653 18.4008C86.1653 20.0197 85.8472 21.2957 85.195 22.2846M172.951 25.9293H184.849L184.865 25.7857C183.791 25.4428 183.131 24.5177 182.892 23.0104C182.805 22.5638 182.765 21.3356 182.765 19.3259V16.8536C182.765 14.8359 182.829 12.882 182.964 11.0078C181.405 11.5023 179.576 11.8851 177.484 12.1562V12.3955C178.327 12.4433 178.86 12.8022 179.091 13.4642C179.218 13.8071 179.274 14.5089 179.274 15.5855V19.8682C179.274 21.1283 179.329 21.9896 179.441 22.4681C179.608 23.1779 179.997 23.8398 180.594 24.4459H172.951V24.4619L156.448 24.4459H154.094V16.8616C154.094 14.8439 154.157 12.8899 154.293 11.0158C152.734 11.5102 150.905 11.8931 148.813 12.1642V12.4035C149.656 12.4513 150.181 12.8102 150.404 13.4721C150.523 13.8151 150.586 14.5169 150.586 15.5935V24.4539H144.574V24.4698L120.682 24.4539H118.161V16.8695C118.161 14.8518 118.225 12.8979 118.36 11.0238C116.801 11.5182 114.972 11.901 112.88 12.1722V12.4114C113.715 12.4593 114.256 12.8182 114.487 13.4801C114.606 13.823 114.67 14.5248 114.67 15.6015V24.4619H107.599V24.4778L92.7188 24.4619H89.6647V16.6941C89.6647 15.0353 89.6886 14.0623 89.7363 13.7672C89.9113 12.4832 90.3964 11.7575 91.1997 11.574V11.3906L90.0465 11.4225H87.0879C86.6107 12.244 86.2289 13.0654 85.9347 13.8948C84.6701 12.0047 83.0476 11.0636 81.0752 11.0636C78.9915 11.0636 77.2816 11.7176 75.9375 13.0175C74.6013 14.3175 73.9253 16.0002 73.9253 18.0738C73.9253 20.1473 74.5616 21.9258 75.8261 23.3533C77.1543 24.8287 78.8563 25.5704 80.94 25.5704C82.0376 25.5704 83.0397 25.3232 83.9384 24.8287C84.8769 24.2944 85.5688 23.5527 86.0062 22.5957V25.9532H92.7108L107.599 25.9692V25.9532H120.682L144.574 25.9692V25.9532H156.456L172.959 25.9692V25.9532L172.951 25.9293Z" fill="#142238"></path><path d="M85.195 22.2767C84.4315 23.465 83.2862 24.0551 81.7751 24.0551C80.264 24.0551 79.1108 23.457 78.3234 22.2607C77.6554 21.2559 77.3213 19.9639 77.3213 18.3928C77.3213 16.8217 77.6474 15.5058 78.3075 14.4929C79.0869 13.2967 80.2322 12.6985 81.7433 12.6985C83.2544 12.6985 84.4076 13.2887 85.1791 14.477C85.8392 15.4739 86.1653 16.7818 86.1653 18.4008C86.1653 20.0197 85.8472 21.2957 85.195 22.2846M172.951 25.9293H184.849L184.865 25.7857C183.791 25.4428 183.131 24.5177 182.892 23.0104C182.805 22.5638 182.765 21.3356 182.765 19.3259V16.8536C182.765 14.8359 182.829 12.882 182.964 11.0078C181.405 11.5023 179.576 11.8851 177.484 12.1562V12.3955C178.327 12.4433 178.86 12.8022 179.091 13.4642C179.218 13.8071 179.274 14.5089 179.274 15.5855V19.8682C179.274 21.1283 179.329 21.9896 179.441 22.4681C179.608 23.1779 179.997 23.8398 180.594 24.4459H172.951V24.4619L156.448 24.4459H154.094V16.8616C154.094 14.8439 154.157 12.8899 154.293 11.0158C152.734 11.5102 150.905 11.8931 148.813 12.1642V12.4035C149.656 12.4513 150.181 12.8102 150.404 13.4721C150.523 13.8151 150.586 14.5169 150.586 15.5935V24.4539H144.574V24.4698L120.682 24.4539H118.161V16.8695C118.161 14.8518 118.225 12.8979 118.36 11.0238C116.801 11.5182 114.972 11.901 112.88 12.1722V12.4114C113.715 12.4593 114.256 12.8182 114.487 13.4801C114.606 13.823 114.67 14.5248 114.67 15.6015V24.4619H107.599V24.4778L92.7188 24.4619H89.6647V16.6941C89.6647 15.0353 89.6886 14.0623 89.7363 13.7672C89.9113 12.4832 90.3964 11.7575 91.1997 11.574V11.3906L90.0465 11.4225H87.0879C86.6107 12.244 86.2289 13.0654 85.9347 13.8948C84.6701 12.0047 83.0476 11.0636 81.0752 11.0636C78.9915 11.0636 77.2816 11.7176 75.9375 13.0175C74.6013 14.3175 73.9253 16.0002 73.9253 18.0738C73.9253 20.1473 74.5616 21.9258 75.8261 23.3533C77.1543 24.8287 78.8563 25.5704 80.94 25.5704C82.0376 25.5704 83.0397 25.3232 83.9384 24.8287C84.8769 24.2944 85.5688 23.5527 86.0062 22.5957V25.9532H92.7108L107.599 25.9692V25.9532H120.682L144.574 25.9692V25.9532H156.456L172.959 25.9692V25.9532L172.951 25.9293Z" fill="black" fill-opacity="0.2"></path><path d="M175.878 28.1462C175.464 28.5529 175.257 29.0473 175.257 29.6455C175.257 30.2436 175.456 30.746 175.87 31.1209C176.275 31.5037 176.784 31.6951 177.397 31.6951C178.009 31.6951 178.502 31.5037 178.916 31.1129C179.329 30.7221 179.536 30.2356 179.536 29.6455C179.536 29.0553 179.337 28.5369 178.924 28.1382C178.51 27.7394 178.009 27.54 177.397 27.54C176.784 27.54 176.291 27.7394 175.886 28.1462" fill="#142238"></path><path d="M175.878 28.1462C175.464 28.5529 175.257 29.0473 175.257 29.6455C175.257 30.2436 175.456 30.746 175.87 31.1209C176.275 31.5037 176.784 31.6951 177.397 31.6951C178.009 31.6951 178.502 31.5037 178.916 31.1129C179.329 30.7221 179.536 30.2356 179.536 29.6455C179.536 29.0553 179.337 28.5369 178.924 28.1382C178.51 27.7394 178.009 27.54 177.397 27.54C176.784 27.54 176.291 27.7394 175.886 28.1462" fill="black" fill-opacity="0.2"></path><path d="M6.34667 41.7278C3.53123 38.9365 3.53123 34.3588 6.34667 31.5675L26.7547 11.2947C29.5701 8.49543 34.175 8.49543 36.9825 11.2947L57.3905 31.5675C60.2059 34.3588 60.2059 38.9365 57.3905 41.7278L61.2796 37.8678C64.5563 34.606 64.5563 29.2706 61.2796 26.0168L37.8415 2.73739C34.5568 -0.524441 29.1883 -0.524441 25.9037 2.73739L2.4655 26.0168C0.819182 27.6437 0 29.797 0 31.9423C0 34.0956 0.819182 36.2409 2.4655 37.8758L6.34667 41.7358V41.7278Z" fill="#142238"></path><path d="M6.34667 41.7278C3.53123 38.9365 3.53123 34.3588 6.34667 31.5675L26.7547 11.2947C29.5701 8.49543 34.175 8.49543 36.9825 11.2947L57.3905 31.5675C60.2059 34.3588 60.2059 38.9365 57.3905 41.7278L61.2796 37.8678C64.5563 34.606 64.5563 29.2706 61.2796 26.0168L37.8415 2.73739C34.5568 -0.524441 29.1883 -0.524441 25.9037 2.73739L2.4655 26.0168C0.819182 27.6437 0 29.797 0 31.9423C0 34.0956 0.819182 36.2409 2.4655 37.8758L6.34667 41.7358V41.7278Z" fill="black" fill-opacity="0.2"></path><path d="M49.7713 49.5115C52.0538 47.2466 52.0538 43.5301 49.7713 41.2652L36.0201 27.6118C33.7376 25.3469 29.9995 25.3469 27.717 27.6118L13.9658 41.2652C11.6833 43.5301 11.6833 47.2466 13.9658 49.5115L16.7017 52.223C14.8725 50.4127 14.8725 47.4459 16.7017 45.6276L28.5521 33.8563C30.3813 32.046 33.3638 32.046 35.193 33.8563L47.0433 45.6276C48.8725 47.4459 48.8725 50.4127 47.0433 52.223L49.7713 49.5115Z" fill="#142238"></path><path d="M49.7713 49.5115C52.0538 47.2466 52.0538 43.5301 49.7713 41.2652L36.0201 27.6118C33.7376 25.3469 29.9995 25.3469 27.717 27.6118L13.9658 41.2652C11.6833 43.5301 11.6833 47.2466 13.9658 49.5115L16.7017 52.223C14.8725 50.4127 14.8725 47.4459 16.7017 45.6276L28.5521 33.8563C30.3813 32.046 33.3638 32.046 35.193 33.8563L47.0433 45.6276C48.8725 47.4459 48.8725 50.4127 47.0433 52.223L49.7713 49.5115Z" fill="black" fill-opacity="0.2"></path><path d="M41.0146 57.6695C42.1837 56.5131 42.1837 54.615 41.0146 53.4586L33.9998 46.4884C32.8307 45.332 30.9299 45.332 29.7608 46.4884L22.7381 53.4586C21.5769 54.615 21.5769 56.5131 22.7381 57.6695L24.1299 59.0492C23.1994 58.1241 23.1994 56.6088 24.1299 55.6837L30.1823 49.6784C31.1128 48.7533 32.6398 48.7533 33.5704 49.6784L39.6228 55.6837C40.5533 56.6088 40.5533 58.1241 39.6228 59.0492L41.0146 57.6695Z" fill="#142238"></path><path d="M41.0146 57.6695C42.1837 56.5131 42.1837 54.615 41.0146 53.4586L33.9998 46.4884C32.8307 45.332 30.9299 45.332 29.7608 46.4884L22.7381 53.4586C21.5769 54.615 21.5769 56.5131 22.7381 57.6695L24.1299 59.0492C23.1994 58.1241 23.1994 56.6088 24.1299 55.6837L30.1823 49.6784C31.1128 48.7533 32.6398 48.7533 33.5704 49.6784L39.6228 55.6837C40.5533 56.6088 40.5533 58.1241 39.6228 59.0492L41.0146 57.6695Z" fill="black" fill-opacity="0.2"></path></g><defs><clipPath id="clip0_2010_3553"><rect width="185" height="59" fill="white" transform="translate(0 0.289062)"></rect></clipPath></defs></svg>