<svg xmlns="http://www.w3.org/2000/svg" width="263" height="59" viewBox="0 0 263 59" fill="none"><path d="M6.34667 41.4368C3.53123 38.6455 3.53123 34.0678 6.34667 31.2765L26.7547 11.0037C29.5701 8.20441 34.175 8.20441 36.9825 11.0037L57.3905 31.2765C60.2059 34.0678 60.2059 38.6455 57.3905 41.4368L61.2796 37.5768C64.5563 34.315 64.5563 28.9796 61.2796 25.7258L37.8415 2.44637C34.5568 -0.815457 29.1883 -0.815457 25.9037 2.44637L2.4655 25.7258C0.819182 27.3527 0 29.506 0 31.6513C0 33.8046 0.819182 35.9499 2.4655 37.5848L6.34667 41.4447V41.4368Z" fill="#142238"></path><path d="M6.34667 41.4368C3.53123 38.6455 3.53123 34.0678 6.34667 31.2765L26.7547 11.0037C29.5701 8.20441 34.175 8.20441 36.9825 11.0037L57.3905 31.2765C60.2059 34.0678 60.2059 38.6455 57.3905 41.4368L61.2796 37.5768C64.5563 34.315 64.5563 28.9796 61.2796 25.7258L37.8415 2.44637C34.5568 -0.815457 29.1883 -0.815457 25.9037 2.44637L2.4655 25.7258C0.819182 27.3527 0 29.506 0 31.6513C0 33.8046 0.819182 35.9499 2.4655 37.5848L6.34667 41.4447V41.4368Z" fill="black" fill-opacity="0.2"></path><path d="M49.7713 49.2205C52.0538 46.9555 52.0538 43.2391 49.7713 40.9742L36.0201 27.3208C33.7376 25.0558 29.9995 25.0558 27.717 27.3208L13.9658 40.9742C11.6833 43.2391 11.6833 46.9555 13.9658 49.2205L16.7017 51.932C14.8725 50.1217 14.8725 47.1549 16.7017 45.3366L28.5521 33.5653C30.3813 31.7549 33.3638 31.7549 35.193 33.5653L47.0433 45.3366C48.8725 47.1549 48.8725 50.1217 47.0433 51.932L49.7713 49.2205Z" fill="#142238"></path><path d="M49.7713 49.2205C52.0538 46.9555 52.0538 43.2391 49.7713 40.9742L36.0201 27.3208C33.7376 25.0558 29.9995 25.0558 27.717 27.3208L13.9658 40.9742C11.6833 43.2391 11.6833 46.9555 13.9658 49.2205L16.7017 51.932C14.8725 50.1217 14.8725 47.1549 16.7017 45.3366L28.5521 33.5653C30.3813 31.7549 33.3638 31.7549 35.193 33.5653L47.0433 45.3366C48.8725 47.1549 48.8725 50.1217 47.0433 51.932L49.7713 49.2205Z" fill="black" fill-opacity="0.2"></path><path d="M41.0146 57.3795C42.1837 56.2231 42.1837 54.325 41.0146 53.1686L33.9998 46.1983C32.8307 45.042 30.9299 45.042 29.7608 46.1983L22.7381 53.1686C21.5769 54.325 21.5769 56.2231 22.7381 57.3795L24.1299 58.7592C23.1994 57.8341 23.1994 56.3188 24.1299 55.3937L30.1823 49.3884C31.1128 48.4633 32.6398 48.4633 33.5704 49.3884L39.6228 55.3937C40.5533 56.3188 40.5533 57.8341 39.6228 58.7592L41.0146 57.3795Z" fill="#142238"></path><path d="M41.0146 57.3795C42.1837 56.2231 42.1837 54.325 41.0146 53.1686L33.9998 46.1983C32.8307 45.042 30.9299 45.042 29.7608 46.1983L22.7381 53.1686C21.5769 54.325 21.5769 56.2231 22.7381 57.3795L24.1299 58.7592C23.1994 57.8341 23.1994 56.3188 24.1299 55.3937L30.1823 49.3884C31.1128 48.4633 32.6398 48.4633 33.5704 49.3884L39.6228 55.3937C40.5533 56.3188 40.5533 57.8341 39.6228 58.7592L41.0146 57.3795Z" fill="black" fill-opacity="0.2"></path><path d="M76.6288 25.1602C77.9167 25.64 79.8188 25.8799 82.3264 25.8799H102.72L102.737 25.7428C101.739 25.4258 101.134 24.5604 100.903 23.1381C100.827 22.7183 100.784 21.5616 100.784 19.6767V17.3634C100.784 15.4698 100.852 13.6363 100.972 11.8799C99.5217 12.3426 97.8244 12.7024 95.8882 12.9509V13.1736C96.6644 13.2165 97.1676 13.5506 97.3808 14.1761C97.4917 14.4931 97.5514 15.1614 97.5514 16.1724V20.1908C97.5514 21.3732 97.6111 22.1785 97.722 22.6241C97.9011 23.2924 98.3191 23.9178 98.9588 24.4833H84.6038C82.7785 24.4833 81.2005 24.312 79.8529 23.9778C79.3326 23.8407 78.7526 23.498 78.1044 22.9497C77.5585 22.4698 77.2941 21.7673 77.2941 20.8419C77.2941 20.7049 77.2941 20.5592 77.3111 20.4135C77.4135 19.1112 77.9423 18.0145 78.8891 17.1235C79.7591 16.3009 80.8679 15.7697 82.207 15.5041C82.77 15.3927 83.3158 15.3328 83.8361 15.3328C84.7061 15.3328 85.5079 15.4956 86.2414 15.8126C87.3929 16.3438 88.2202 17.2434 88.715 18.5029L88.9879 18.4858L89.3802 14.9643C88.297 14.6816 87.12 14.5274 85.8576 14.5017C84.6038 14.4845 83.3585 14.6131 82.1302 14.8615C79.6994 15.3499 77.6267 16.2838 75.9123 17.6547C74.4623 18.8028 73.7373 20.0623 73.7373 21.4331C73.7373 21.7073 73.7629 21.9815 73.8226 22.2642C74.1041 23.6179 75.0423 24.5776 76.6373 25.1602" fill="#142238"></path><path d="M76.6288 25.1602C77.9167 25.64 79.8188 25.8799 82.3264 25.8799H102.72L102.737 25.7428C101.739 25.4258 101.134 24.5604 100.903 23.1381C100.827 22.7183 100.784 21.5616 100.784 19.6767V17.3634C100.784 15.4698 100.852 13.6363 100.972 11.8799C99.5217 12.3426 97.8244 12.7024 95.8882 12.9509V13.1736C96.6644 13.2165 97.1676 13.5506 97.3808 14.1761C97.4917 14.4931 97.5514 15.1614 97.5514 16.1724V20.1908C97.5514 21.3732 97.6111 22.1785 97.722 22.6241C97.9011 23.2924 98.3191 23.9178 98.9588 24.4833H84.6038C82.7785 24.4833 81.2005 24.312 79.8529 23.9778C79.3326 23.8407 78.7526 23.498 78.1044 22.9497C77.5585 22.4698 77.2941 21.7673 77.2941 20.8419C77.2941 20.7049 77.2941 20.5592 77.3111 20.4135C77.4135 19.1112 77.9423 18.0145 78.8891 17.1235C79.7591 16.3009 80.8679 15.7697 82.207 15.5041C82.77 15.3927 83.3158 15.3328 83.8361 15.3328C84.7061 15.3328 85.5079 15.4956 86.2414 15.8126C87.3929 16.3438 88.2202 17.2434 88.715 18.5029L88.9879 18.4858L89.3802 14.9643C88.297 14.6816 87.12 14.5274 85.8576 14.5017C84.6038 14.4845 83.3585 14.6131 82.1302 14.8615C79.6994 15.3499 77.6267 16.2838 75.9123 17.6547C74.4623 18.8028 73.7373 20.0623 73.7373 21.4331C73.7373 21.7073 73.7629 21.9815 73.8226 22.2642C74.1041 23.6179 75.0423 24.5776 76.6373 25.1602" fill="black" fill-opacity="0.2"></path><path d="M88.7373 7.9062C88.7373 8.48515 88.9266 8.95883 89.3136 9.32725C89.6921 9.6869 90.1739 9.87988 90.7416 9.87988C91.3093 9.87988 91.7739 9.69567 92.161 9.31848C92.5481 8.94129 92.7373 8.47637 92.7373 7.9062C92.7373 7.33602 92.5481 6.8448 92.1696 6.45883C91.7825 6.07287 91.3093 5.87988 90.7416 5.87988C90.1739 5.87988 89.7093 6.07287 89.3223 6.4676C88.9352 6.85357 88.7373 7.33602 88.7373 7.9062Z" fill="#142238"></path><path d="M88.7373 7.9062C88.7373 8.48515 88.9266 8.95883 89.3136 9.32725C89.6921 9.6869 90.1739 9.87988 90.7416 9.87988C91.3093 9.87988 91.7739 9.69567 92.161 9.31848C92.5481 8.94129 92.7373 8.47637 92.7373 7.9062C92.7373 7.33602 92.5481 6.8448 92.1696 6.45883C91.7825 6.07287 91.3093 5.87988 90.7416 5.87988C90.1739 5.87988 89.7093 6.07287 89.3223 6.4676C88.9352 6.85357 88.7373 7.33602 88.7373 7.9062Z" fill="black" fill-opacity="0.2"></path><path d="M84.3136 6.4676C83.9266 6.85357 83.7373 7.33602 83.7373 7.9062C83.7373 8.47637 83.9265 8.95883 84.305 9.32725C84.6921 9.69567 85.1653 9.87988 85.733 9.87988C86.3007 9.87988 86.7653 9.69567 87.1524 9.31848C87.5395 8.95006 87.7373 8.47637 87.7373 7.9062C87.7373 7.33602 87.5481 6.8448 87.161 6.45883C86.7825 6.07287 86.3007 5.87988 85.733 5.87988C85.1653 5.87988 84.7007 6.07287 84.3136 6.4676Z" fill="#142238"></path><path d="M84.3136 6.4676C83.9266 6.85357 83.7373 7.33602 83.7373 7.9062C83.7373 8.47637 83.9265 8.95883 84.305 9.32725C84.6921 9.69567 85.1653 9.87988 85.733 9.87988C86.3007 9.87988 86.7653 9.69567 87.1524 9.31848C87.5395 8.95006 87.7373 8.47637 87.7373 7.9062C87.7373 7.33602 87.5481 6.8448 87.161 6.45883C86.7825 6.07287 86.3007 5.87988 85.733 5.87988C85.1653 5.87988 84.7007 6.07287 84.3136 6.4676Z" fill="black" fill-opacity="0.2"></path><path d="M200.322 6.4676C199.935 6.85357 199.737 7.33602 199.737 7.9062C199.737 8.47637 199.927 8.95883 200.314 9.32725C200.692 9.69567 201.174 9.87988 201.742 9.87988C202.309 9.87988 202.774 9.69567 203.161 9.31848C203.548 8.95006 203.737 8.47637 203.737 7.9062C203.737 7.33602 203.548 6.8448 203.17 6.45883C202.782 6.07287 202.309 5.87988 201.742 5.87988C201.174 5.87988 200.709 6.07287 200.322 6.4676Z" fill="#142238"></path><path d="M200.322 6.4676C199.935 6.85357 199.737 7.33602 199.737 7.9062C199.737 8.47637 199.927 8.95883 200.314 9.32725C200.692 9.69567 201.174 9.87988 201.742 9.87988C202.309 9.87988 202.774 9.69567 203.161 9.31848C203.548 8.95006 203.737 8.47637 203.737 7.9062C203.737 7.33602 203.548 6.8448 203.17 6.45883C202.782 6.07287 202.309 5.87988 201.742 5.87988C201.174 5.87988 200.709 6.07287 200.322 6.4676Z" fill="black" fill-opacity="0.2"></path><path d="M205.321 6.4676C204.935 6.85357 204.737 7.33602 204.737 7.9062C204.737 8.47637 204.926 8.95883 205.312 9.32725C205.69 9.69567 206.171 9.87988 206.737 9.87988C207.304 9.87988 207.767 9.69567 208.154 9.31848C208.54 8.95006 208.737 8.47637 208.737 7.9062C208.737 7.33602 208.548 6.8448 208.162 6.45883C207.785 6.07287 207.304 5.87988 206.737 5.87988C206.171 5.87988 205.707 6.07287 205.321 6.4676Z" fill="#142238"></path><path d="M205.321 6.4676C204.935 6.85357 204.737 7.33602 204.737 7.9062C204.737 8.47637 204.926 8.95883 205.312 9.32725C205.69 9.69567 206.171 9.87988 206.737 9.87988C207.304 9.87988 207.767 9.69567 208.154 9.31848C208.54 8.95006 208.737 8.47637 208.737 7.9062C208.737 7.33602 208.548 6.8448 208.162 6.45883C207.785 6.07287 207.304 5.87988 206.737 5.87988C206.171 5.87988 205.707 6.07287 205.321 6.4676Z" fill="black" fill-opacity="0.2"></path><path d="M258.967 24.6598C258.269 26.1239 257.141 26.856 255.61 26.856C254.078 26.856 252.909 26.1239 252.193 24.6598C251.646 23.5574 251.377 22.1191 251.377 20.345C251.377 18.5708 251.655 17.2186 252.193 16.099C252.917 14.6521 254.028 13.9287 255.526 13.9287C257.023 13.9287 258.227 14.6435 258.959 16.0904C259.506 17.1756 259.775 18.5966 259.775 20.3708C259.775 22.145 259.506 23.5488 258.976 24.6684M240.277 26.21C239.579 27.6741 238.46 28.3976 236.937 28.3976C235.414 28.3976 234.235 27.6655 233.529 26.21C232.973 25.1076 232.695 23.6694 232.695 21.8952C232.695 20.121 232.973 18.7775 233.529 17.6493C234.244 16.2024 235.355 15.4703 236.861 15.4703C238.367 15.4703 239.562 16.1938 240.286 17.6234C240.833 18.7086 241.102 20.1383 241.102 21.9038C241.102 23.6694 240.833 25.0904 240.286 26.2014M260.676 15.3153C259.363 14.0837 257.663 13.4636 255.576 13.4636C253.489 13.4636 251.806 14.0665 250.46 15.2636C249.046 16.5296 248.331 18.2005 248.331 20.2588C248.331 22.0761 248.827 23.5832 249.803 24.7976H243.534C243.879 23.9536 244.056 22.9976 244.056 21.9383C244.056 19.8282 243.366 18.1316 241.994 16.8569C240.681 15.6253 238.973 15.0052 236.878 15.0052C234.782 15.0052 233.116 15.6081 231.778 16.8052C230.365 18.0713 229.658 19.7421 229.658 21.8177C229.658 22.9115 229.843 23.9019 230.213 24.7976H227.217V24.8148L212.112 24.7976H210.084V17.6406C210.084 15.7373 210.143 13.8942 210.252 12.1287C208.822 12.5938 207.156 12.9555 205.237 13.2052V13.4292C206.003 13.4722 206.499 13.8081 206.71 14.4368C206.819 14.7555 206.878 15.4273 206.878 16.4435V24.7976H199.582V24.8148L184.486 24.7976H182.777V7.35739C182.777 5.2818 182.828 3.45596 182.929 1.87988C181.313 2.47414 179.866 2.82725 178.578 2.93921V3.16314C179.319 3.2062 179.782 3.53347 179.983 4.13634C180.084 4.43778 180.135 5.0751 180.135 6.07414V24.7976H185.664V24.8148L170.559 24.7976H168.623V21.9383C168.623 18.7086 167.142 17.0981 164.188 17.0981H153.838C150.859 17.0981 149.369 16.1765 149.369 14.3249C149.369 13.2052 149.74 12.1631 150.472 11.1899C151.263 10.1651 152.197 9.6483 153.266 9.6483C156.657 9.6483 158.693 11.0952 159.367 13.9804H159.552L160.705 11.2416C158.197 9.76027 155.613 9.0196 152.946 9.0196C151.162 9.0196 149.639 9.49328 148.376 10.4406C146.963 11.5 146.256 12.921 146.256 14.6866C146.256 17.2186 148.528 18.4847 153.081 18.4847H161.714C164.247 18.4847 165.51 19.2081 165.51 20.655L165.526 24.7976H144.102V24.8148L128.997 24.7976V24.8148L112.579 24.7976H110.206V7.35739C110.189 5.26457 110.239 3.43873 110.34 1.87988C108.733 2.47414 107.286 2.82725 105.99 2.93921V3.16314C106.739 3.2062 107.21 3.53347 107.412 4.13634C107.513 4.43778 107.563 5.0751 107.563 6.07414V20.5861C107.563 22.2828 107.521 23.3421 107.446 23.7555C107.235 25.0215 106.663 25.7966 105.737 26.0636L105.754 26.2014H112.579L128.997 26.2186V26.2014L144.102 26.2186V26.2014H170.559L185.664 26.2186V26.2014H184.486L199.591 26.2186V26.2014H212.112L227.217 26.2186V26.2014H231.012C231.206 26.4512 231.416 26.6923 231.652 26.9249C232.965 28.2253 234.681 28.8799 236.802 28.8799C238.923 28.8799 240.732 28.234 242.07 26.9421C242.306 26.7182 242.524 26.4684 242.726 26.21H251.318V26.1756C252.471 26.9507 253.851 27.3383 255.484 27.3383C257.604 27.3383 259.329 26.7268 260.667 25.5038C262.047 24.2378 262.737 22.5411 262.737 20.4052C262.737 18.2694 262.047 16.5985 260.684 15.3239" fill="#142238"></path><path d="M258.967 24.6598C258.269 26.1239 257.141 26.856 255.61 26.856C254.078 26.856 252.909 26.1239 252.193 24.6598C251.646 23.5574 251.377 22.1191 251.377 20.345C251.377 18.5708 251.655 17.2186 252.193 16.099C252.917 14.6521 254.028 13.9287 255.526 13.9287C257.023 13.9287 258.227 14.6435 258.959 16.0904C259.506 17.1756 259.775 18.5966 259.775 20.3708C259.775 22.145 259.506 23.5488 258.976 24.6684M240.277 26.21C239.579 27.6741 238.46 28.3976 236.937 28.3976C235.414 28.3976 234.235 27.6655 233.529 26.21C232.973 25.1076 232.695 23.6694 232.695 21.8952C232.695 20.121 232.973 18.7775 233.529 17.6493C234.244 16.2024 235.355 15.4703 236.861 15.4703C238.367 15.4703 239.562 16.1938 240.286 17.6234C240.833 18.7086 241.102 20.1383 241.102 21.9038C241.102 23.6694 240.833 25.0904 240.286 26.2014M260.676 15.3153C259.363 14.0837 257.663 13.4636 255.576 13.4636C253.489 13.4636 251.806 14.0665 250.46 15.2636C249.046 16.5296 248.331 18.2005 248.331 20.2588C248.331 22.0761 248.827 23.5832 249.803 24.7976H243.534C243.879 23.9536 244.056 22.9976 244.056 21.9383C244.056 19.8282 243.366 18.1316 241.994 16.8569C240.681 15.6253 238.973 15.0052 236.878 15.0052C234.782 15.0052 233.116 15.6081 231.778 16.8052C230.365 18.0713 229.658 19.7421 229.658 21.8177C229.658 22.9115 229.843 23.9019 230.213 24.7976H227.217V24.8148L212.112 24.7976H210.084V17.6406C210.084 15.7373 210.143 13.8942 210.252 12.1287C208.822 12.5938 207.156 12.9555 205.237 13.2052V13.4292C206.003 13.4722 206.499 13.8081 206.71 14.4368C206.819 14.7555 206.878 15.4273 206.878 16.4435V24.7976H199.582V24.8148L184.486 24.7976H182.777V7.35739C182.777 5.2818 182.828 3.45596 182.929 1.87988C181.313 2.47414 179.866 2.82725 178.578 2.93921V3.16314C179.319 3.2062 179.782 3.53347 179.983 4.13634C180.084 4.43778 180.135 5.0751 180.135 6.07414V24.7976H185.664V24.8148L170.559 24.7976H168.623V21.9383C168.623 18.7086 167.142 17.0981 164.188 17.0981H153.838C150.859 17.0981 149.369 16.1765 149.369 14.3249C149.369 13.2052 149.74 12.1631 150.472 11.1899C151.263 10.1651 152.197 9.6483 153.266 9.6483C156.657 9.6483 158.693 11.0952 159.367 13.9804H159.552L160.705 11.2416C158.197 9.76027 155.613 9.0196 152.946 9.0196C151.162 9.0196 149.639 9.49328 148.376 10.4406C146.963 11.5 146.256 12.921 146.256 14.6866C146.256 17.2186 148.528 18.4847 153.081 18.4847H161.714C164.247 18.4847 165.51 19.2081 165.51 20.655L165.526 24.7976H144.102V24.8148L128.997 24.7976V24.8148L112.579 24.7976H110.206V7.35739C110.189 5.26457 110.239 3.43873 110.34 1.87988C108.733 2.47414 107.286 2.82725 105.99 2.93921V3.16314C106.739 3.2062 107.21 3.53347 107.412 4.13634C107.513 4.43778 107.563 5.0751 107.563 6.07414V20.5861C107.563 22.2828 107.521 23.3421 107.446 23.7555C107.235 25.0215 106.663 25.7966 105.737 26.0636L105.754 26.2014H112.579L128.997 26.2186V26.2014L144.102 26.2186V26.2014H170.559L185.664 26.2186V26.2014H184.486L199.591 26.2186V26.2014H212.112L227.217 26.2186V26.2014H231.012C231.206 26.4512 231.416 26.6923 231.652 26.9249C232.965 28.2253 234.681 28.8799 236.802 28.8799C238.923 28.8799 240.732 28.234 242.07 26.9421C242.306 26.7182 242.524 26.4684 242.726 26.21H251.318V26.1756C252.471 26.9507 253.851 27.3383 255.484 27.3383C257.604 27.3383 259.329 26.7268 260.667 25.5038C262.047 24.2378 262.737 22.5411 262.737 20.4052C262.737 18.2694 262.047 16.5985 260.684 15.3239" fill="black" fill-opacity="0.2"></path><path d="M261.887 36.5808C261.52 36.6961 261.128 36.8026 259.419 36.8026H249.056C248.505 36.8026 247.038 36.7138 246.638 36.5187C246.246 36.3235 246.112 36.2081 246.004 35.8799H245.737V40.7417H246.004C246.296 38.1422 248.13 37.9471 249.656 37.9471H252.832V54.307C252.832 56.4274 251.523 56.5694 250.681 56.596V56.8799H257.793V56.596C256.976 56.5694 255.642 56.4806 255.642 54.307V37.9471H258.819C260.211 37.9471 262.254 38.1422 262.471 40.7417H262.737V35.8799H262.471C262.421 36.1283 262.287 36.4654 261.895 36.5808" fill="#142238"></path><path d="M261.887 36.5808C261.52 36.6961 261.128 36.8026 259.419 36.8026H249.056C248.505 36.8026 247.038 36.7138 246.638 36.5187C246.246 36.3235 246.112 36.2081 246.004 35.8799H245.737V40.7417H246.004C246.296 38.1422 248.13 37.9471 249.656 37.9471H252.832V54.307C252.832 56.4274 251.523 56.5694 250.681 56.596V56.8799H257.793V56.596C256.976 56.5694 255.642 56.4806 255.642 54.307V37.9471H258.819C260.211 37.9471 262.254 38.1422 262.471 40.7417H262.737V35.8799H262.471C262.421 36.1283 262.287 36.4654 261.895 36.5808" fill="black" fill-opacity="0.2"></path><path d="M79.1849 56.5797C77.1058 56.2176 76.9285 54.69 77.0252 52.5532L77.6054 39.573H77.6538L83.7139 56.8622H84.0684L90.1849 39.3788H90.2333L90.8941 53.1713C90.9747 55.0609 90.9424 56.509 88.7908 56.5885V56.8711H95.7373V56.5885C93.7871 56.562 93.6824 55.2022 93.6098 53.7541L92.9249 40.9682C92.8765 39.8556 92.7476 37.4715 94.9314 37.1624V36.8799H90.2091L84.8582 51.9174L79.604 36.8799H74.656V37.1624C75.2926 37.2154 76.0985 37.2507 76.8882 38.4958L76.1468 52.7298C76.0743 54.2839 75.9695 56.5973 73.7373 56.5973V56.8799H79.1688V56.5973L79.1849 56.5797Z" fill="#142238"></path><path d="M79.1849 56.5797C77.1058 56.2176 76.9285 54.69 77.0252 52.5532L77.6054 39.573H77.6538L83.7139 56.8622H84.0684L90.1849 39.3788H90.2333L90.8941 53.1713C90.9747 55.0609 90.9424 56.509 88.7908 56.5885V56.8711H95.7373V56.5885C93.7871 56.562 93.6824 55.2022 93.6098 53.7541L92.9249 40.9682C92.8765 39.8556 92.7476 37.4715 94.9314 37.1624V36.8799H90.2091L84.8582 51.9174L79.604 36.8799H74.656V37.1624C75.2926 37.2154 76.0985 37.2507 76.8882 38.4958L76.1468 52.7298C76.0743 54.2839 75.9695 56.5973 73.7373 56.5973V56.8799H79.1688V56.5973L79.1849 56.5797Z" fill="black" fill-opacity="0.2"></path><path d="M116.746 56.5884V56.871H122.422V56.5884C120.249 56.2262 120.064 54.6979 120.165 52.5601L120.771 39.5742H120.822L127.155 56.871H127.526L133.918 39.3799H133.977L134.667 53.1785C134.752 55.0689 134.718 56.5177 132.469 56.5972V56.8799H139.737V56.5972C137.699 56.5707 137.59 55.2103 137.506 53.7615L136.79 40.97C136.739 39.8569 136.604 37.4718 138.887 37.1626V36.8799H133.952L128.359 51.9241L122.868 36.8799H117.697V37.1626C118.363 37.2156 119.205 37.2509 120.03 38.4965L119.255 52.7368C119.18 54.2915 119.07 56.606 116.737 56.606" fill="#142238"></path><path d="M116.746 56.5884V56.871H122.422V56.5884C120.249 56.2262 120.064 54.6979 120.165 52.5601L120.771 39.5742H120.822L127.155 56.871H127.526L133.918 39.3799H133.977L134.667 53.1785C134.752 55.0689 134.718 56.5177 132.469 56.5972V56.8799H139.737V56.5972C137.699 56.5707 137.59 55.2103 137.506 53.7615L136.79 40.97C136.739 39.8569 136.604 37.4718 138.887 37.1626V36.8799H133.952L128.359 51.9241L122.868 36.8799H117.697V37.1626C118.363 37.2156 119.205 37.2509 120.03 38.4965L119.255 52.7368C119.18 54.2915 119.07 56.606 116.737 56.606" fill="black" fill-opacity="0.2"></path><path d="M156.887 36.5808C156.52 36.6961 156.128 36.8026 154.419 36.8026H144.056C143.505 36.8026 142.038 36.7138 141.638 36.5187C141.246 36.3235 141.112 36.2081 141.004 35.8799H140.737V40.7417H141.004C141.296 38.1422 143.13 37.9471 144.656 37.9471H147.832V54.307C147.832 56.4274 146.523 56.5694 145.681 56.596V56.8799H152.793V56.596C151.976 56.5694 150.642 56.4806 150.642 54.307V37.9471H153.819C155.211 37.9471 157.254 38.1422 157.471 40.7417H157.737V35.8799H157.471C157.42 36.1283 157.287 36.4654 156.895 36.5808" fill="#142238"></path><path d="M156.887 36.5808C156.52 36.6961 156.128 36.8026 154.419 36.8026H144.056C143.505 36.8026 142.038 36.7138 141.638 36.5187C141.246 36.3235 141.112 36.2081 141.004 35.8799H140.737V40.7417H141.004C141.296 38.1422 143.13 37.9471 144.656 37.9471H147.832V54.307C147.832 56.4274 146.523 56.5694 145.681 56.596V56.8799H152.793V56.596C151.976 56.5694 150.642 56.4806 150.642 54.307V37.9471H153.819C155.211 37.9471 157.254 38.1422 157.471 40.7417H157.737V35.8799H157.471C157.42 36.1283 157.287 36.4654 156.895 36.5808" fill="black" fill-opacity="0.2"></path><path d="M163.028 47.8864L165.576 39.2764H165.625L168.327 47.8864H163.028ZM172.938 53.5335L167.639 36.8799H165.374L160.334 53.9169C159.954 55.1805 159.242 56.4964 157.737 56.601V56.8799H162.624V56.601C162.187 56.5749 161.095 56.4964 161.095 55.0062C161.095 54.7012 161.2 54.0215 161.402 53.3592L162.753 48.8363H168.634L170.163 53.6903C170.447 54.5705 170.471 54.8668 170.471 55.1195C170.471 56.5487 169.225 56.5749 168.634 56.601V56.8799H175.737V56.601C174.645 56.4354 173.747 56.1043 172.938 53.5335Z" fill="#142238"></path><path d="M163.028 47.8864L165.576 39.2764H165.625L168.327 47.8864H163.028ZM172.938 53.5335L167.639 36.8799H165.374L160.334 53.9169C159.954 55.1805 159.242 56.4964 157.737 56.601V56.8799H162.624V56.601C162.187 56.5749 161.095 56.4964 161.095 55.0062C161.095 54.7012 161.2 54.0215 161.402 53.3592L162.753 48.8363H168.634L170.163 53.6903C170.447 54.5705 170.471 54.8668 170.471 55.1195C170.471 56.5487 169.225 56.5749 168.634 56.601V56.8799H175.737V56.601C174.645 56.4354 173.747 56.1043 172.938 53.5335Z" fill="black" fill-opacity="0.2"></path><path d="M176.737 56.5972V56.8799H190.172L190.737 53.152H190.486C189.867 55.6255 188.988 56.129 186.109 56.129C182.953 56.129 182.074 56.129 182.074 53.152V39.4682C182.074 37.3834 183.428 37.2156 184.388 37.1626V36.8799H176.737V37.1626C177.643 37.2156 179.051 37.3569 179.051 39.4682V54.318C179.051 56.4647 177.58 56.5707 176.737 56.5972Z" fill="#142238"></path><path d="M176.737 56.5972V56.8799H190.172L190.737 53.152H190.486C189.867 55.6255 188.988 56.129 186.109 56.129C182.953 56.129 182.074 56.129 182.074 53.152V39.4682C182.074 37.3834 183.428 37.2156 184.388 37.1626V36.8799H176.737V37.1626C177.643 37.2156 179.051 37.3569 179.051 39.4682V54.318C179.051 56.4647 177.58 56.5707 176.737 56.5972Z" fill="black" fill-opacity="0.2"></path><path d="M196.028 47.8864L198.576 39.2764H198.625L201.327 47.8864H196.028ZM205.938 53.5335L200.639 36.8799H198.374L193.334 53.9169C192.954 55.1805 192.242 56.4964 190.737 56.601V56.8799H195.624V56.601C195.187 56.5749 194.095 56.4964 194.095 55.0062C194.095 54.7012 194.2 54.0215 194.402 53.3592L195.753 48.8363H201.634L203.163 53.6903C203.447 54.5705 203.471 54.8668 203.471 55.1195C203.471 56.5487 202.225 56.5749 201.634 56.601V56.8799H208.737V56.601C207.645 56.4354 206.747 56.1043 205.938 53.5335Z" fill="#142238"></path><path d="M196.028 47.8864L198.576 39.2764H198.625L201.327 47.8864H196.028ZM205.938 53.5335L200.639 36.8799H198.374L193.334 53.9169C192.954 55.1805 192.242 56.4964 190.737 56.601V56.8799H195.624V56.601C195.187 56.5749 194.095 56.4964 194.095 55.0062C194.095 54.7012 194.2 54.0215 194.402 53.3592L195.753 48.8363H201.634L203.163 53.6903C203.447 54.5705 203.471 54.8668 203.471 55.1195C203.471 56.5487 202.225 56.5749 201.634 56.601V56.8799H208.737V56.601C207.645 56.4354 206.747 56.1043 205.938 53.5335Z" fill="black" fill-opacity="0.2"></path><path d="M224.352 54.1855C224.222 54.0177 224.198 54.0177 224.198 53.9912L217.646 44.9541L222.06 39.5831C223.356 38.2226 224.101 37.4718 226.239 37.1626V36.8799H220.529V37.1626C221.469 37.2509 221.825 37.6661 221.825 38.2226C221.825 38.6643 221.363 39.3357 221.039 39.7244L215.556 46.341V39.4417C215.556 37.3304 216.86 37.2156 217.646 37.1626V36.8799H210.737V37.1626C211.499 37.2156 212.827 37.2774 212.827 39.4417V54.318C212.827 56.4382 211.531 56.5707 210.737 56.5972V56.8799H217.646V56.5972C216.804 56.5442 215.556 56.4028 215.556 54.318V46.8092H215.605L222.87 56.8799H227.737V56.5972C226.077 56.3498 225.672 55.8463 224.344 54.1767" fill="#142238"></path><path d="M224.352 54.1855C224.222 54.0177 224.198 54.0177 224.198 53.9912L217.646 44.9541L222.06 39.5831C223.356 38.2226 224.101 37.4718 226.239 37.1626V36.8799H220.529V37.1626C221.469 37.2509 221.825 37.6661 221.825 38.2226C221.825 38.6643 221.363 39.3357 221.039 39.7244L215.556 46.341V39.4417C215.556 37.3304 216.86 37.2156 217.646 37.1626V36.8799H210.737V37.1626C211.499 37.2156 212.827 37.2774 212.827 39.4417V54.318C212.827 56.4382 211.531 56.5707 210.737 56.5972V56.8799H217.646V56.5972C216.804 56.5442 215.556 56.4028 215.556 54.318V46.8092H215.605L222.87 56.8799H227.737V56.5972C226.077 56.3498 225.672 55.8463 224.344 54.1767" fill="black" fill-opacity="0.2"></path><path d="M234.322 47.8864L237.012 39.2764H237.063L239.915 47.8864H234.322ZM244.783 53.5335L239.189 36.8799H236.798L231.478 53.9169C231.077 55.1805 230.326 56.4964 228.737 56.601V56.8799H233.895V56.601C233.434 56.5749 232.281 56.4964 232.281 55.0062C232.281 54.7012 232.392 54.0215 232.606 53.3592L234.032 48.8363H240.24L241.854 53.6903C242.153 54.5705 242.178 54.8668 242.178 55.1195C242.178 56.5487 240.863 56.5749 240.24 56.601V56.8799H247.737V56.601C246.584 56.4354 245.637 56.1043 244.783 53.5335Z" fill="#142238"></path><path d="M234.322 47.8864L237.012 39.2764H237.063L239.915 47.8864H234.322ZM244.783 53.5335L239.189 36.8799H236.798L231.478 53.9169C231.077 55.1805 230.326 56.4964 228.737 56.601V56.8799H233.895V56.601C233.434 56.5749 232.281 56.4964 232.281 55.0062C232.281 54.7012 232.392 54.0215 232.606 53.3592L234.032 48.8363H240.24L241.854 53.6903C242.153 54.5705 242.178 54.8668 242.178 55.1195C242.178 56.5487 240.863 56.5749 240.24 56.601V56.8799H247.737V56.601C246.584 56.4354 245.637 56.1043 244.783 53.5335Z" fill="black" fill-opacity="0.2"></path><path d="M114.173 50.4106C114.173 51.4815 113.957 52.4219 113.525 53.2316C113.093 54.0414 112.523 54.7205 111.807 55.2604C111.09 55.8002 110.27 56.2094 109.354 56.4794C108.431 56.7493 107.472 56.8799 106.47 56.8799C105.374 56.8799 104.338 56.7406 103.371 56.462C102.403 56.1833 101.549 55.7567 100.823 55.182C100.098 54.6074 99.528 53.8934 99.1049 53.0314C98.6818 52.1694 98.4746 51.1507 98.4746 49.9578V41.0941C98.4746 40.2669 98.4141 39.6052 98.2846 39.1176C98.1551 38.63 97.9737 38.2643 97.7406 38.0031C97.5075 37.7419 97.2139 37.5677 96.8685 37.472C96.5231 37.3762 96.1518 37.2978 95.7373 37.2369V36.8799C96.2468 36.9234 96.7476 36.9495 97.2398 36.967C97.732 36.9844 98.2328 37.0018 98.7422 37.0018C99.3467 37.0018 99.9511 36.9931 100.556 36.967C101.151 36.9495 101.756 36.9147 102.369 36.8799V37.2369C101.782 37.3152 101.298 37.4458 100.927 37.62C100.556 37.7941 100.262 38.064 100.063 38.4036C99.8561 38.7519 99.718 39.1959 99.6489 39.7358C99.5798 40.2756 99.5453 40.9461 99.5453 41.7384V50.0449C99.5453 50.5238 99.6316 51.0723 99.813 51.6905C99.9857 52.3174 100.314 52.9008 100.78 53.4406C101.246 53.9805 101.885 54.4419 102.688 54.8163C103.491 55.1907 104.519 55.3823 105.78 55.3823C106.565 55.3823 107.308 55.2865 107.999 55.1037C108.69 54.9208 109.303 54.6161 109.838 54.2155C110.365 53.815 110.788 53.2839 111.09 52.6396C111.392 51.9953 111.548 51.2116 111.548 50.28V40.6152C111.548 40.0231 111.505 39.5268 111.401 39.1176C111.306 38.7171 111.133 38.3775 110.9 38.125C110.667 37.8725 110.339 37.6722 109.933 37.5329C109.519 37.3936 109 37.2978 108.379 37.2369V36.8799C108.966 36.9234 109.553 36.9495 110.132 36.967C110.71 36.9844 111.297 37.0018 111.885 37.0018C112.705 37.0018 113.516 36.9931 114.311 36.967C115.105 36.9495 115.917 36.9147 116.737 36.8799V37.2369C116.323 37.3152 115.96 37.3936 115.649 37.472C115.338 37.5503 115.071 37.6809 114.855 37.8551C114.639 38.0292 114.475 38.273 114.371 38.5778C114.268 38.8825 114.207 39.3178 114.207 39.8664V50.3932L114.173 50.4106Z" fill="#142238"></path><path d="M114.173 50.4106C114.173 51.4815 113.957 52.4219 113.525 53.2316C113.093 54.0414 112.523 54.7205 111.807 55.2604C111.09 55.8002 110.27 56.2094 109.354 56.4794C108.431 56.7493 107.472 56.8799 106.47 56.8799C105.374 56.8799 104.338 56.7406 103.371 56.462C102.403 56.1833 101.549 55.7567 100.823 55.182C100.098 54.6074 99.528 53.8934 99.1049 53.0314C98.6818 52.1694 98.4746 51.1507 98.4746 49.9578V41.0941C98.4746 40.2669 98.4141 39.6052 98.2846 39.1176C98.1551 38.63 97.9737 38.2643 97.7406 38.0031C97.5075 37.7419 97.2139 37.5677 96.8685 37.472C96.5231 37.3762 96.1518 37.2978 95.7373 37.2369V36.8799C96.2468 36.9234 96.7476 36.9495 97.2398 36.967C97.732 36.9844 98.2328 37.0018 98.7422 37.0018C99.3467 37.0018 99.9511 36.9931 100.556 36.967C101.151 36.9495 101.756 36.9147 102.369 36.8799V37.2369C101.782 37.3152 101.298 37.4458 100.927 37.62C100.556 37.7941 100.262 38.064 100.063 38.4036C99.8561 38.7519 99.718 39.1959 99.6489 39.7358C99.5798 40.2756 99.5453 40.9461 99.5453 41.7384V50.0449C99.5453 50.5238 99.6316 51.0723 99.813 51.6905C99.9857 52.3174 100.314 52.9008 100.78 53.4406C101.246 53.9805 101.885 54.4419 102.688 54.8163C103.491 55.1907 104.519 55.3823 105.78 55.3823C106.565 55.3823 107.308 55.2865 107.999 55.1037C108.69 54.9208 109.303 54.6161 109.838 54.2155C110.365 53.815 110.788 53.2839 111.09 52.6396C111.392 51.9953 111.548 51.2116 111.548 50.28V40.6152C111.548 40.0231 111.505 39.5268 111.401 39.1176C111.306 38.7171 111.133 38.3775 110.9 38.125C110.667 37.8725 110.339 37.6722 109.933 37.5329C109.519 37.3936 109 37.2978 108.379 37.2369V36.8799C108.966 36.9234 109.553 36.9495 110.132 36.967C110.71 36.9844 111.297 37.0018 111.885 37.0018C112.705 37.0018 113.516 36.9931 114.311 36.967C115.105 36.9495 115.917 36.9147 116.737 36.8799V37.2369C116.323 37.3152 115.96 37.3936 115.649 37.472C115.338 37.5503 115.071 37.6809 114.855 37.8551C114.639 38.0292 114.475 38.273 114.371 38.5778C114.268 38.8825 114.207 39.3178 114.207 39.8664V50.3932L114.173 50.4106Z" fill="black" fill-opacity="0.2"></path></svg>