<svg xmlns="http://www.w3.org/2000/svg" width="190" height="59" viewBox="0 0 190 59" fill="none"><path d="M6.34667 41.4368C3.53123 38.6455 3.53123 34.0678 6.34667 31.2765L26.7547 11.0037C29.5701 8.20441 34.175 8.20441 36.9825 11.0037L57.3905 31.2765C60.2059 34.0678 60.2059 38.6455 57.3905 41.4368L61.2796 37.5768C64.5563 34.315 64.5563 28.9796 61.2796 25.7258L37.8415 2.44637C34.5568 -0.815457 29.1883 -0.815457 25.9037 2.44637L2.4655 25.7258C0.819182 27.3527 0 29.506 0 31.6513C0 33.8046 0.819182 35.9499 2.4655 37.5848L6.34667 41.4447V41.4368Z" fill="#142238"></path><path d="M6.34667 41.4368C3.53123 38.6455 3.53123 34.0678 6.34667 31.2765L26.7547 11.0037C29.5701 8.20441 34.175 8.20441 36.9825 11.0037L57.3905 31.2765C60.2059 34.0678 60.2059 38.6455 57.3905 41.4368L61.2796 37.5768C64.5563 34.315 64.5563 28.9796 61.2796 25.7258L37.8415 2.44637C34.5568 -0.815457 29.1883 -0.815457 25.9037 2.44637L2.4655 25.7258C0.819182 27.3527 0 29.506 0 31.6513C0 33.8046 0.819182 35.9499 2.4655 37.5848L6.34667 41.4447V41.4368Z" fill="black" fill-opacity="0.2"></path><path d="M49.7713 49.2205C52.0538 46.9555 52.0538 43.2391 49.7713 40.9742L36.0201 27.3208C33.7376 25.0558 29.9995 25.0558 27.717 27.3208L13.9658 40.9742C11.6833 43.2391 11.6833 46.9555 13.9658 49.2205L16.7017 51.932C14.8725 50.1217 14.8725 47.1549 16.7017 45.3366L28.5521 33.5653C30.3813 31.7549 33.3638 31.7549 35.193 33.5653L47.0433 45.3366C48.8725 47.1549 48.8725 50.1217 47.0433 51.932L49.7713 49.2205Z" fill="#142238"></path><path d="M49.7713 49.2205C52.0538 46.9555 52.0538 43.2391 49.7713 40.9742L36.0201 27.3208C33.7376 25.0558 29.9995 25.0558 27.717 27.3208L13.9658 40.9742C11.6833 43.2391 11.6833 46.9555 13.9658 49.2205L16.7017 51.932C14.8725 50.1217 14.8725 47.1549 16.7017 45.3366L28.5521 33.5653C30.3813 31.7549 33.3638 31.7549 35.193 33.5653L47.0433 45.3366C48.8725 47.1549 48.8725 50.1217 47.0433 51.932L49.7713 49.2205Z" fill="black" fill-opacity="0.2"></path><path d="M41.0146 57.3795C42.1837 56.2231 42.1837 54.325 41.0146 53.1686L33.9998 46.1983C32.8307 45.042 30.9299 45.042 29.7608 46.1983L22.7381 53.1686C21.5769 54.325 21.5769 56.2231 22.7381 57.3795L24.1299 58.7592C23.1994 57.8341 23.1994 56.3188 24.1299 55.3937L30.1823 49.3884C31.1128 48.4633 32.6398 48.4633 33.5704 49.3884L39.6228 55.3937C40.5533 56.3188 40.5533 57.8341 39.6228 58.7592L41.0146 57.3795Z" fill="#142238"></path><path d="M41.0146 57.3795C42.1837 56.2231 42.1837 54.325 41.0146 53.1686L33.9998 46.1983C32.8307 45.042 30.9299 45.042 29.7608 46.1983L22.7381 53.1686C21.5769 54.325 21.5769 56.2231 22.7381 57.3795L24.1299 58.7592C23.1994 57.8341 23.1994 56.3188 24.1299 55.3937L30.1823 49.3884C31.1128 48.4633 32.6398 48.4633 33.5704 49.3884L39.6228 55.3937C40.5533 56.3188 40.5533 57.8341 39.6228 58.7592L41.0146 57.3795Z" fill="black" fill-opacity="0.2"></path><path d="M164.031 22.1724C162.823 21.0972 161.907 20.0316 161.55 18.6043C160.891 15.9876 161.129 13.5042 162.896 11.3919C164.022 10.0312 165.551 9.34612 167.226 9.07018C169.377 8.72764 171.428 9.07018 173.36 10.1454C173.854 10.4118 174.138 10.6402 173.973 11.3253C173.717 12.3719 173.616 13.4471 173.451 14.5128C173.387 14.5128 173.323 14.5223 173.259 14.5318C173.195 14.3606 173.122 14.1893 173.058 14.0275C172.646 12.8286 172.17 11.6583 171.272 10.7544C170.101 9.57448 167.849 9.70769 166.585 10.6497C165.038 11.801 164.196 13.3805 163.958 15.3311C163.637 17.9382 164.571 20.0411 166.338 21.8014C166.521 21.9821 166.814 22.1344 167.061 22.1344C173.058 22.1534 179.045 22.1439 185.041 22.1439C185.151 22.1439 185.27 22.1154 185.343 22.1058C185.087 21.4208 184.821 20.7737 184.592 20.1077C184.519 19.8983 184.501 19.6605 184.501 19.4416C184.501 17.5291 184.501 15.6166 184.492 13.704C184.492 13.0285 184.446 12.3434 184.364 11.6678C184.254 10.7639 183.677 10.2786 182.826 9.98363C184.537 9.61254 186.24 9.25097 187.98 8.87988C187.916 9.97412 187.842 11.0779 187.787 12.1816C187.769 12.5146 187.769 12.8477 187.769 13.1807C187.769 15.1598 187.76 17.1295 187.778 19.1086C187.778 19.7461 187.824 20.3931 187.943 21.0211C188.172 22.2961 188.483 22.7338 189.737 23.6758H188.932C174.394 23.6758 159.866 23.6758 145.328 23.6758C144.852 23.6758 144.513 23.7805 144.156 24.1801C142.902 25.5693 141.318 26.2449 139.478 26.4637C137.446 26.7016 135.569 26.3591 133.866 25.1792C133.39 24.8557 133.024 24.3704 132.594 23.9898C132.438 23.8471 132.237 23.7615 132.045 23.6949C131.917 23.6473 131.77 23.6853 131.624 23.6853H82.5364C82.3716 24.4656 82.28 25.2268 82.042 25.9309C81.4378 27.6912 80.2568 28.9377 78.5907 29.6513C77.1992 30.2507 74.9014 29.6132 73.9401 28.4143C73.812 28.2621 73.7021 27.9862 73.7479 27.8054C73.9768 26.8443 74.2514 25.9119 74.5718 24.7796C74.6908 25.1507 74.7732 25.341 74.8281 25.5408C75.0845 26.5874 75.3316 27.6436 76.1006 28.4429C76.7872 29.1565 77.8858 29.0614 78.4534 28.2431C79.085 27.3391 79.3322 26.2734 79.3597 25.1982C79.4421 21.8109 79.4604 18.433 79.497 15.0457C79.5062 13.8182 79.2956 13.5137 78.1696 13.0665C78.0963 13.038 78.0414 12.9904 77.9407 12.9333C79.4238 12.5717 80.8519 12.2197 82.3716 11.8486V22.0297C83.4701 22.3532 105.551 22.3723 107.162 22.0678V21.3541C107.162 18.8993 107.172 16.4539 107.162 13.999C107.162 13.2188 107.107 12.429 107.034 11.6488C106.97 10.878 106.503 10.3737 105.753 10.212C105.643 10.1834 105.542 10.1454 105.258 10.0598C107.153 9.66012 108.874 9.28903 110.531 8.93697V22.0773C111.309 22.2771 130.571 22.4008 131.459 22.1915C131.331 21.554 131.202 20.9165 131.093 20.2694C130.598 17.3768 131.724 14.4081 134.233 12.9904C137.263 11.2682 140.33 11.2872 143.232 13.3329C144.999 14.5699 145.85 16.4444 145.914 18.6328C145.941 19.7937 145.74 20.9545 145.63 22.1915H164.04L164.031 22.1724ZM134.114 19.0325C134.196 20.7262 134.361 22.3247 135.112 23.809C135.816 25.1792 136.906 25.9594 138.389 25.9975C139.881 26.0451 141.044 25.3695 141.822 23.9898C142.454 22.8766 142.655 21.6777 142.801 20.4122C143.003 18.6138 142.829 16.863 142.28 15.1693C141.703 13.3995 140.357 12.3814 138.801 12.3148C136.814 12.2292 135.551 13.2188 134.819 15.0361C134.288 16.3492 134.233 17.7194 134.114 19.0325Z" fill="#142238"></path><path d="M164.031 22.1724C162.823 21.0972 161.907 20.0316 161.55 18.6043C160.891 15.9876 161.129 13.5042 162.896 11.3919C164.022 10.0312 165.551 9.34612 167.226 9.07018C169.377 8.72764 171.428 9.07018 173.36 10.1454C173.854 10.4118 174.138 10.6402 173.973 11.3253C173.717 12.3719 173.616 13.4471 173.451 14.5128C173.387 14.5128 173.323 14.5223 173.259 14.5318C173.195 14.3606 173.122 14.1893 173.058 14.0275C172.646 12.8286 172.17 11.6583 171.272 10.7544C170.101 9.57448 167.849 9.70769 166.585 10.6497C165.038 11.801 164.196 13.3805 163.958 15.3311C163.637 17.9382 164.571 20.0411 166.338 21.8014C166.521 21.9821 166.814 22.1344 167.061 22.1344C173.058 22.1534 179.045 22.1439 185.041 22.1439C185.151 22.1439 185.27 22.1154 185.343 22.1058C185.087 21.4208 184.821 20.7737 184.592 20.1077C184.519 19.8983 184.501 19.6605 184.501 19.4416C184.501 17.5291 184.501 15.6166 184.492 13.704C184.492 13.0285 184.446 12.3434 184.364 11.6678C184.254 10.7639 183.677 10.2786 182.826 9.98363C184.537 9.61254 186.24 9.25097 187.98 8.87988C187.916 9.97412 187.842 11.0779 187.787 12.1816C187.769 12.5146 187.769 12.8477 187.769 13.1807C187.769 15.1598 187.76 17.1295 187.778 19.1086C187.778 19.7461 187.824 20.3931 187.943 21.0211C188.172 22.2961 188.483 22.7338 189.737 23.6758H188.932C174.394 23.6758 159.866 23.6758 145.328 23.6758C144.852 23.6758 144.513 23.7805 144.156 24.1801C142.902 25.5693 141.318 26.2449 139.478 26.4637C137.446 26.7016 135.569 26.3591 133.866 25.1792C133.39 24.8557 133.024 24.3704 132.594 23.9898C132.438 23.8471 132.237 23.7615 132.045 23.6949C131.917 23.6473 131.77 23.6853 131.624 23.6853H82.5364C82.3716 24.4656 82.28 25.2268 82.042 25.9309C81.4378 27.6912 80.2568 28.9377 78.5907 29.6513C77.1992 30.2507 74.9014 29.6132 73.9401 28.4143C73.812 28.2621 73.7021 27.9862 73.7479 27.8054C73.9768 26.8443 74.2514 25.9119 74.5718 24.7796C74.6908 25.1507 74.7732 25.341 74.8281 25.5408C75.0845 26.5874 75.3316 27.6436 76.1006 28.4429C76.7872 29.1565 77.8858 29.0614 78.4534 28.2431C79.085 27.3391 79.3322 26.2734 79.3597 25.1982C79.4421 21.8109 79.4604 18.433 79.497 15.0457C79.5062 13.8182 79.2956 13.5137 78.1696 13.0665C78.0963 13.038 78.0414 12.9904 77.9407 12.9333C79.4238 12.5717 80.8519 12.2197 82.3716 11.8486V22.0297C83.4701 22.3532 105.551 22.3723 107.162 22.0678V21.3541C107.162 18.8993 107.172 16.4539 107.162 13.999C107.162 13.2188 107.107 12.429 107.034 11.6488C106.97 10.878 106.503 10.3737 105.753 10.212C105.643 10.1834 105.542 10.1454 105.258 10.0598C107.153 9.66012 108.874 9.28903 110.531 8.93697V22.0773C111.309 22.2771 130.571 22.4008 131.459 22.1915C131.331 21.554 131.202 20.9165 131.093 20.2694C130.598 17.3768 131.724 14.4081 134.233 12.9904C137.263 11.2682 140.33 11.2872 143.232 13.3329C144.999 14.5699 145.85 16.4444 145.914 18.6328C145.941 19.7937 145.74 20.9545 145.63 22.1915H164.04L164.031 22.1724ZM134.114 19.0325C134.196 20.7262 134.361 22.3247 135.112 23.809C135.816 25.1792 136.906 25.9594 138.389 25.9975C139.881 26.0451 141.044 25.3695 141.822 23.9898C142.454 22.8766 142.655 21.6777 142.801 20.4122C143.003 18.6138 142.829 16.863 142.28 15.1693C141.703 13.3995 140.357 12.3814 138.801 12.3148C136.814 12.2292 135.551 13.2188 134.819 15.0361C134.288 16.3492 134.233 17.7194 134.114 19.0325Z" fill="black" fill-opacity="0.2"></path><path d="M117.675 54.5521C117.188 55.0013 111.94 54.9555 111.737 54.6163C112.206 54.4055 112.721 54.2496 113.144 53.9746C113.953 53.4338 114.072 52.5171 114.182 51.6645C114.302 50.7753 114.274 49.877 114.32 48.9878C114.44 46.7236 114.559 44.4593 114.688 42.1951C114.761 40.9484 114.844 39.7017 114.927 38.455C114.954 38.1433 114.982 37.8225 115.037 37.5108C115.295 36.1541 114.256 35.5124 113.18 35.2741C112.997 35.2282 112.813 35.1732 112.629 35.1274C112.629 35.0632 112.638 34.9991 112.647 34.9349C112.813 34.9165 112.978 34.8799 113.134 34.8799C114.605 34.8799 116.076 34.8799 117.547 34.8799C117.914 34.8799 118.089 34.9716 118.236 35.3566C119.982 39.9492 121.756 44.5327 123.53 49.1161C123.595 49.272 123.678 49.4095 123.825 49.7028C124.275 48.5753 124.679 47.6036 125.066 46.6227C126.242 43.6068 127.419 40.5909 128.595 37.575C128.908 36.7866 129.22 35.9982 129.542 35.2099C129.597 35.0816 129.735 34.9074 129.836 34.9074C131.5 34.889 133.164 34.8982 134.827 34.8982C134.846 34.9532 134.864 35.0082 134.892 35.0541C134.772 35.1274 134.662 35.2374 134.524 35.2741C133.393 35.5857 132.722 36.3099 132.722 37.4833C132.732 39.3992 132.86 41.3151 132.943 43.231C132.971 43.9643 133.035 44.6977 133.072 45.431C133.154 47.2186 133.219 49.0061 133.32 50.7937C133.357 51.527 133.43 52.2604 133.577 52.9754C133.77 53.9471 134.368 54.4055 135.379 54.4696C135.489 54.4788 135.59 54.5155 135.737 54.6896C135.59 54.7446 135.434 54.8546 135.287 54.8546C133.035 54.8638 130.774 54.8638 128.522 54.8546C128.375 54.8546 128.228 54.763 128.08 54.708C128.08 54.6438 128.09 54.5888 128.099 54.5338C128.264 54.5063 128.421 54.488 128.586 54.4788C129.579 54.3963 130.397 53.5804 130.378 52.5812C130.323 50.1887 130.231 47.8053 130.139 45.4127C130.084 43.9826 129.992 42.5526 129.9 41.1226C129.836 40.0409 129.753 38.9592 129.68 37.8775C129.625 37.8683 129.57 37.8591 129.505 37.8408C129.321 38.2991 129.138 38.7575 128.963 39.2158C127.658 42.5801 126.362 45.9535 125.056 49.327C124.413 51.0045 123.779 52.6821 123.126 54.3596C123.053 54.543 122.878 54.6805 122.749 54.8363C122.611 54.6805 122.418 54.543 122.345 54.3596C121.389 51.8937 120.451 49.4186 119.504 46.9527C118.374 44.0101 117.234 41.0584 116.094 38.1158C116.067 38.0333 115.993 37.9508 115.892 37.7858C115.846 37.9416 115.809 37.9966 115.809 38.0608C115.763 39.3167 115.736 40.5725 115.681 41.8284C115.561 44.4135 115.432 46.9986 115.322 49.5836C115.285 50.5278 115.249 51.4904 115.322 52.4254C115.414 53.6263 116.241 54.1946 117.326 54.488C117.418 54.5063 117.51 54.5338 117.684 54.5796" fill="#142238"></path><path d="M117.675 54.5521C117.188 55.0013 111.94 54.9555 111.737 54.6163C112.206 54.4055 112.721 54.2496 113.144 53.9746C113.953 53.4338 114.072 52.5171 114.182 51.6645C114.302 50.7753 114.274 49.877 114.32 48.9878C114.44 46.7236 114.559 44.4593 114.688 42.1951C114.761 40.9484 114.844 39.7017 114.927 38.455C114.954 38.1433 114.982 37.8225 115.037 37.5108C115.295 36.1541 114.256 35.5124 113.18 35.2741C112.997 35.2282 112.813 35.1732 112.629 35.1274C112.629 35.0632 112.638 34.9991 112.647 34.9349C112.813 34.9165 112.978 34.8799 113.134 34.8799C114.605 34.8799 116.076 34.8799 117.547 34.8799C117.914 34.8799 118.089 34.9716 118.236 35.3566C119.982 39.9492 121.756 44.5327 123.53 49.1161C123.595 49.272 123.678 49.4095 123.825 49.7028C124.275 48.5753 124.679 47.6036 125.066 46.6227C126.242 43.6068 127.419 40.5909 128.595 37.575C128.908 36.7866 129.22 35.9982 129.542 35.2099C129.597 35.0816 129.735 34.9074 129.836 34.9074C131.5 34.889 133.164 34.8982 134.827 34.8982C134.846 34.9532 134.864 35.0082 134.892 35.0541C134.772 35.1274 134.662 35.2374 134.524 35.2741C133.393 35.5857 132.722 36.3099 132.722 37.4833C132.732 39.3992 132.86 41.3151 132.943 43.231C132.971 43.9643 133.035 44.6977 133.072 45.431C133.154 47.2186 133.219 49.0061 133.32 50.7937C133.357 51.527 133.43 52.2604 133.577 52.9754C133.77 53.9471 134.368 54.4055 135.379 54.4696C135.489 54.4788 135.59 54.5155 135.737 54.6896C135.59 54.7446 135.434 54.8546 135.287 54.8546C133.035 54.8638 130.774 54.8638 128.522 54.8546C128.375 54.8546 128.228 54.763 128.08 54.708C128.08 54.6438 128.09 54.5888 128.099 54.5338C128.264 54.5063 128.421 54.488 128.586 54.4788C129.579 54.3963 130.397 53.5804 130.378 52.5812C130.323 50.1887 130.231 47.8053 130.139 45.4127C130.084 43.9826 129.992 42.5526 129.9 41.1226C129.836 40.0409 129.753 38.9592 129.68 37.8775C129.625 37.8683 129.57 37.8591 129.505 37.8408C129.321 38.2991 129.138 38.7575 128.963 39.2158C127.658 42.5801 126.362 45.9535 125.056 49.327C124.413 51.0045 123.779 52.6821 123.126 54.3596C123.053 54.543 122.878 54.6805 122.749 54.8363C122.611 54.6805 122.418 54.543 122.345 54.3596C121.389 51.8937 120.451 49.4186 119.504 46.9527C118.374 44.0101 117.234 41.0584 116.094 38.1158C116.067 38.0333 115.993 37.9508 115.892 37.7858C115.846 37.9416 115.809 37.9966 115.809 38.0608C115.763 39.3167 115.736 40.5725 115.681 41.8284C115.561 44.4135 115.432 46.9986 115.322 49.5836C115.285 50.5278 115.249 51.4904 115.322 52.4254C115.414 53.6263 116.241 54.1946 117.326 54.488C117.418 54.5063 117.51 54.5338 117.684 54.5796" fill="black" fill-opacity="0.2"></path><path d="M189.674 54.8603H188.106C187.376 54.8603 186.646 54.8145 185.916 54.8695C185.222 54.9336 184.816 54.6038 184.465 54.0723C183.185 52.1297 181.905 50.1871 180.598 48.2628C180.183 47.6581 179.706 47.0991 179.219 46.5493C178.345 45.5597 177.209 45.3031 175.893 45.3856C175.884 45.6147 175.866 45.8254 175.866 46.0362V51.9189C175.866 53.6599 176.208 54.0906 177.885 54.503C177.948 54.5121 177.993 54.5854 178.065 54.6404C177.596 54.9978 171.071 54.9428 170.737 54.5579C171.044 54.503 171.323 54.4755 171.585 54.393C172.423 54.1456 172.873 53.5592 172.873 52.6978C172.873 47.4748 172.873 42.2518 172.873 37.0288C172.873 36.085 172.206 35.3886 171.287 35.2695C171.098 35.2511 170.927 35.1412 170.746 35.0862C170.755 35.0312 170.764 34.9762 170.782 34.9304C170.972 34.9213 171.152 34.8938 171.341 34.8938C173.766 34.8938 176.199 34.8571 178.624 34.9029C179.868 34.9304 181.121 35.0587 182.274 35.691C184.149 36.7172 184.987 38.33 184.852 40.41C184.735 42.2701 183.671 43.6538 181.697 44.4143C181.382 44.5334 181.058 44.6342 180.67 44.7717C181.085 45.0557 181.445 45.2665 181.77 45.523C183.167 46.6226 184.005 48.1895 184.987 49.6281C185.726 50.7094 186.402 51.8365 187.169 52.8994C187.673 53.5958 188.34 54.1364 189.197 54.3747C189.386 54.4297 189.557 54.5396 189.737 54.6221C189.719 54.7045 189.701 54.7779 189.683 54.8603M175.911 44.5426C176.776 44.4876 177.632 44.5334 178.435 44.3593C179.66 44.0936 180.751 43.5896 181.31 42.2793C181.761 41.2164 181.797 40.1351 181.589 39.0447C181.364 37.9268 180.877 36.9463 179.868 36.3324C178.867 35.7184 177.786 35.5077 176.623 35.7368C176.235 35.8101 175.848 35.7368 175.857 36.3599C175.884 38.9439 175.866 41.5187 175.875 44.0936C175.875 44.2036 175.893 44.3227 175.92 44.5518" fill="#142238"></path><path d="M189.674 54.8603H188.106C187.376 54.8603 186.646 54.8145 185.916 54.8695C185.222 54.9336 184.816 54.6038 184.465 54.0723C183.185 52.1297 181.905 50.1871 180.598 48.2628C180.183 47.6581 179.706 47.0991 179.219 46.5493C178.345 45.5597 177.209 45.3031 175.893 45.3856C175.884 45.6147 175.866 45.8254 175.866 46.0362V51.9189C175.866 53.6599 176.208 54.0906 177.885 54.503C177.948 54.5121 177.993 54.5854 178.065 54.6404C177.596 54.9978 171.071 54.9428 170.737 54.5579C171.044 54.503 171.323 54.4755 171.585 54.393C172.423 54.1456 172.873 53.5592 172.873 52.6978C172.873 47.4748 172.873 42.2518 172.873 37.0288C172.873 36.085 172.206 35.3886 171.287 35.2695C171.098 35.2511 170.927 35.1412 170.746 35.0862C170.755 35.0312 170.764 34.9762 170.782 34.9304C170.972 34.9213 171.152 34.8938 171.341 34.8938C173.766 34.8938 176.199 34.8571 178.624 34.9029C179.868 34.9304 181.121 35.0587 182.274 35.691C184.149 36.7172 184.987 38.33 184.852 40.41C184.735 42.2701 183.671 43.6538 181.697 44.4143C181.382 44.5334 181.058 44.6342 180.67 44.7717C181.085 45.0557 181.445 45.2665 181.77 45.523C183.167 46.6226 184.005 48.1895 184.987 49.6281C185.726 50.7094 186.402 51.8365 187.169 52.8994C187.673 53.5958 188.34 54.1364 189.197 54.3747C189.386 54.4297 189.557 54.5396 189.737 54.6221C189.719 54.7045 189.701 54.7779 189.683 54.8603M175.911 44.5426C176.776 44.4876 177.632 44.5334 178.435 44.3593C179.66 44.0936 180.751 43.5896 181.31 42.2793C181.761 41.2164 181.797 40.1351 181.589 39.0447C181.364 37.9268 180.877 36.9463 179.868 36.3324C178.867 35.7184 177.786 35.5077 176.623 35.7368C176.235 35.8101 175.848 35.7368 175.857 36.3599C175.884 38.9439 175.866 41.5187 175.875 44.0936C175.875 44.2036 175.893 44.3227 175.92 44.5518" fill="black" fill-opacity="0.2"></path><path d="M169.728 54.5945C169.354 54.9659 162.926 54.984 162.33 54.5945C162.561 54.5493 162.712 54.504 162.873 54.4859C163.834 54.35 164.431 53.5711 164.137 52.6292C163.567 50.7725 162.926 48.9339 162.294 47.0953C162.241 46.9504 161.982 46.8055 161.813 46.8055C160.024 46.7874 158.225 46.7874 156.436 46.8055C156.266 46.8055 155.99 46.9957 155.937 47.1587C155.385 48.8977 154.842 50.6276 154.361 52.3937C154.032 53.6073 154.45 54.2232 155.634 54.4949C155.723 54.5221 155.803 54.6036 155.892 54.667C155.794 54.7395 155.697 54.8663 155.599 54.8663C154.094 54.8753 152.598 54.8753 151.102 54.8663C150.978 54.8663 150.853 54.7757 150.737 54.5855C150.96 54.513 151.191 54.4587 151.414 54.3681C152.527 53.9062 153.088 52.9824 153.435 51.8865C154.797 47.5391 156.16 43.2008 157.522 38.8534C157.887 37.7032 158.252 36.553 158.608 35.4027C158.715 35.0314 158.884 34.8412 159.302 34.8865C159.783 34.9317 160.273 34.9227 160.763 34.8865C161.145 34.8593 161.297 35.0223 161.413 35.3755C162.205 37.8028 163.015 40.2211 163.825 42.6302C164.849 45.6734 165.855 48.7256 166.933 51.7506C167.609 53.6436 167.983 54.0511 169.737 54.6036M161.893 45.7821C160.95 42.9653 160.024 40.212 159.044 37.2866C158.118 40.221 157.255 42.9834 156.373 45.7821H161.893Z" fill="#142238"></path><path d="M169.728 54.5945C169.354 54.9659 162.926 54.984 162.33 54.5945C162.561 54.5493 162.712 54.504 162.873 54.4859C163.834 54.35 164.431 53.5711 164.137 52.6292C163.567 50.7725 162.926 48.9339 162.294 47.0953C162.241 46.9504 161.982 46.8055 161.813 46.8055C160.024 46.7874 158.225 46.7874 156.436 46.8055C156.266 46.8055 155.99 46.9957 155.937 47.1587C155.385 48.8977 154.842 50.6276 154.361 52.3937C154.032 53.6073 154.45 54.2232 155.634 54.4949C155.723 54.5221 155.803 54.6036 155.892 54.667C155.794 54.7395 155.697 54.8663 155.599 54.8663C154.094 54.8753 152.598 54.8753 151.102 54.8663C150.978 54.8663 150.853 54.7757 150.737 54.5855C150.96 54.513 151.191 54.4587 151.414 54.3681C152.527 53.9062 153.088 52.9824 153.435 51.8865C154.797 47.5391 156.16 43.2008 157.522 38.8534C157.887 37.7032 158.252 36.553 158.608 35.4027C158.715 35.0314 158.884 34.8412 159.302 34.8865C159.783 34.9317 160.273 34.9227 160.763 34.8865C161.145 34.8593 161.297 35.0223 161.413 35.3755C162.205 37.8028 163.015 40.2211 163.825 42.6302C164.849 45.6734 165.855 48.7256 166.933 51.7506C167.609 53.6436 167.983 54.0511 169.737 54.6036M161.893 45.7821C160.95 42.9653 160.024 40.212 159.044 37.2866C158.118 40.221 157.255 42.9834 156.373 45.7821H161.893Z" fill="black" fill-opacity="0.2"></path><path d="M111.737 54.5216C111.305 54.9288 104.154 55.0012 103.416 54.6754C103.573 54.6031 103.691 54.5126 103.809 54.4945C105.305 54.2683 105.816 53.6169 105.354 52.2597C104.773 50.5497 104.105 48.8668 103.436 47.1749C103.367 47.003 103.042 46.813 102.836 46.813C100.898 46.7858 98.9603 46.813 97.0226 46.7858C96.6389 46.7858 96.4225 46.8944 96.3144 47.2292C95.7635 48.8849 95.1635 50.5316 94.6521 52.1964C94.2783 53.3816 94.7799 54.2864 95.793 54.4674C95.9701 54.5035 96.1471 54.5307 96.3832 54.5669C95.9504 54.9378 91.3078 54.965 90.7373 54.6845C91.2881 54.395 91.9373 54.1869 92.3799 53.7797C92.8619 53.3545 93.2848 52.7935 93.4914 52.2145C95.0455 47.8173 96.5406 43.402 98.0553 38.9957C98.4881 37.7471 98.9406 36.5166 99.3734 35.2681C99.4717 34.9876 99.6291 34.8428 99.9734 34.8881C100.229 34.9152 100.485 34.8881 100.75 34.8881C102.255 34.8881 102.246 34.8881 102.718 36.1547C104.488 40.9319 106.259 45.7091 108.039 50.4773C108.295 51.1559 108.531 51.8526 108.865 52.504C109.416 53.5626 110.223 54.395 111.737 54.4945M102.964 45.7544C101.941 43.0039 100.937 40.2805 99.934 37.5662C99.8652 37.5571 99.8062 37.5481 99.7373 37.53C98.793 40.2443 97.8389 42.9677 96.875 45.7544H102.964Z" fill="#142238"></path><path d="M111.737 54.5216C111.305 54.9288 104.154 55.0012 103.416 54.6754C103.573 54.6031 103.691 54.5126 103.809 54.4945C105.305 54.2683 105.816 53.6169 105.354 52.2597C104.773 50.5497 104.105 48.8668 103.436 47.1749C103.367 47.003 103.042 46.813 102.836 46.813C100.898 46.7858 98.9603 46.813 97.0226 46.7858C96.6389 46.7858 96.4225 46.8944 96.3144 47.2292C95.7635 48.8849 95.1635 50.5316 94.6521 52.1964C94.2783 53.3816 94.7799 54.2864 95.793 54.4674C95.9701 54.5035 96.1471 54.5307 96.3832 54.5669C95.9504 54.9378 91.3078 54.965 90.7373 54.6845C91.2881 54.395 91.9373 54.1869 92.3799 53.7797C92.8619 53.3545 93.2848 52.7935 93.4914 52.2145C95.0455 47.8173 96.5406 43.402 98.0553 38.9957C98.4881 37.7471 98.9406 36.5166 99.3734 35.2681C99.4717 34.9876 99.6291 34.8428 99.9734 34.8881C100.229 34.9152 100.485 34.8881 100.75 34.8881C102.255 34.8881 102.246 34.8881 102.718 36.1547C104.488 40.9319 106.259 45.7091 108.039 50.4773C108.295 51.1559 108.531 51.8526 108.865 52.504C109.416 53.5626 110.223 54.395 111.737 54.4945M102.964 45.7544C101.941 43.0039 100.937 40.2805 99.934 37.5662C99.8652 37.5571 99.8062 37.5481 99.7373 37.53C98.793 40.2443 97.8389 42.9677 96.875 45.7544H102.964Z" fill="black" fill-opacity="0.2"></path><path d="M135.775 34.8983H149.24C149.24 35.8824 149.24 36.8941 149.23 37.9058C149.23 37.9702 149.116 38.0346 149.05 38.1082C148.983 38.0254 148.85 37.9518 148.85 37.8599C148.746 36.048 147.597 35.6709 145.983 35.5973C144.445 35.5329 142.906 35.5881 141.311 35.5881V44.3625H145.318C146.704 44.3625 147.474 43.7922 147.853 42.477C147.863 42.431 147.92 42.3942 148.043 42.2195V47.2413C148.043 47.2413 147.977 47.2597 147.948 47.2689C147.882 47.1033 147.815 46.9469 147.758 46.7814C147.398 45.7421 146.685 45.2362 145.556 45.2362H141.264V46.1928C141.264 48.2622 141.264 50.3316 141.264 52.401C141.264 53.3668 141.919 54.0014 142.916 54.0014C144.084 54.0014 145.242 54.0014 146.41 54.0014C147.891 54.0014 148.793 53.4036 149.335 52.0515C149.401 51.8952 149.468 51.748 149.677 51.6009C149.696 51.7388 149.752 51.886 149.733 52.0147C149.582 52.8701 149.42 53.7255 149.23 54.5808C149.202 54.6912 149.031 54.8016 148.907 54.8568C148.803 54.9027 148.661 54.866 148.537 54.866C144.502 54.866 140.466 54.866 136.44 54.866C136.203 54.866 135.975 54.8016 135.737 54.774C135.737 54.7004 135.747 54.6268 135.747 54.5532C136.07 54.5073 136.411 54.5073 136.725 54.4061C137.636 54.1026 138.111 53.4403 138.111 52.3826C138.121 47.3608 138.121 42.3298 138.111 37.308C138.111 36.1491 137.494 35.4685 136.307 35.1834C136.127 35.1374 135.946 35.0546 135.766 34.9903C135.766 34.9535 135.775 34.9167 135.785 34.8799" fill="#142238"></path><path d="M135.775 34.8983H149.24C149.24 35.8824 149.24 36.8941 149.23 37.9058C149.23 37.9702 149.116 38.0346 149.05 38.1082C148.983 38.0254 148.85 37.9518 148.85 37.8599C148.746 36.048 147.597 35.6709 145.983 35.5973C144.445 35.5329 142.906 35.5881 141.311 35.5881V44.3625H145.318C146.704 44.3625 147.474 43.7922 147.853 42.477C147.863 42.431 147.92 42.3942 148.043 42.2195V47.2413C148.043 47.2413 147.977 47.2597 147.948 47.2689C147.882 47.1033 147.815 46.9469 147.758 46.7814C147.398 45.7421 146.685 45.2362 145.556 45.2362H141.264V46.1928C141.264 48.2622 141.264 50.3316 141.264 52.401C141.264 53.3668 141.919 54.0014 142.916 54.0014C144.084 54.0014 145.242 54.0014 146.41 54.0014C147.891 54.0014 148.793 53.4036 149.335 52.0515C149.401 51.8952 149.468 51.748 149.677 51.6009C149.696 51.7388 149.752 51.886 149.733 52.0147C149.582 52.8701 149.42 53.7255 149.23 54.5808C149.202 54.6912 149.031 54.8016 148.907 54.8568C148.803 54.9027 148.661 54.866 148.537 54.866C144.502 54.866 140.466 54.866 136.44 54.866C136.203 54.866 135.975 54.8016 135.737 54.774C135.737 54.7004 135.747 54.6268 135.747 54.5532C136.07 54.5073 136.411 54.5073 136.725 54.4061C137.636 54.1026 138.111 53.4403 138.111 52.3826C138.121 47.3608 138.121 42.3298 138.111 37.308C138.111 36.1491 137.494 35.4685 136.307 35.1834C136.127 35.1374 135.946 35.0546 135.766 34.9903C135.766 34.9535 135.775 34.9167 135.785 34.8799" fill="black" fill-opacity="0.2"></path><path d="M83.6772 36.0288V36.7481C83.6772 41.9866 83.6772 47.2251 83.6685 52.4635C83.6685 53.5242 84.2532 54.5571 85.4313 54.511C85.5361 54.511 85.6495 54.6493 85.763 54.7139C85.6757 54.7692 85.5884 54.8799 85.5099 54.8799C83.3282 54.8799 81.1552 54.8799 78.9822 54.8799C78.8949 54.8799 78.8164 54.8061 78.572 54.6862C78.8775 54.6032 79.0345 54.5386 79.2003 54.511C80.2301 54.3542 80.7974 53.6902 80.7974 52.6019C80.7974 47.3081 80.7974 42.005 80.7974 36.7112C80.7974 36.5083 80.7799 36.3147 80.7712 36.038C79.4709 36.038 78.1967 36.038 76.9226 36.038C76.5997 36.038 76.2681 36.0657 75.9714 36.1579C74.9242 36.4715 74.2696 37.1724 74.0602 38.316C74.034 38.482 73.9293 38.6296 73.7373 38.7495V33.8799C74.8369 34.9774 76.1372 34.7837 77.3851 34.7929C81.0679 34.8022 84.7594 34.8022 88.4421 34.7929C88.8698 34.7929 89.3235 34.7745 89.7337 34.6454C90.0828 34.5255 90.3708 34.2303 90.7373 33.9813V38.6757C90.7373 38.6757 90.6675 38.7126 90.6326 38.7218C90.5715 38.5558 90.4842 38.399 90.4406 38.233C90.0915 36.8957 89.2974 36.121 88.032 36.0657C86.6269 36.0011 85.2044 36.0472 83.6947 36.0472" fill="#142238"></path><path d="M83.6772 36.0288V36.7481C83.6772 41.9866 83.6772 47.2251 83.6685 52.4635C83.6685 53.5242 84.2532 54.5571 85.4313 54.511C85.5361 54.511 85.6495 54.6493 85.763 54.7139C85.6757 54.7692 85.5884 54.8799 85.5099 54.8799C83.3282 54.8799 81.1552 54.8799 78.9822 54.8799C78.8949 54.8799 78.8164 54.8061 78.572 54.6862C78.8775 54.6032 79.0345 54.5386 79.2003 54.511C80.2301 54.3542 80.7974 53.6902 80.7974 52.6019C80.7974 47.3081 80.7974 42.005 80.7974 36.7112C80.7974 36.5083 80.7799 36.3147 80.7712 36.038C79.4709 36.038 78.1967 36.038 76.9226 36.038C76.5997 36.038 76.2681 36.0657 75.9714 36.1579C74.9242 36.4715 74.2696 37.1724 74.0602 38.316C74.034 38.482 73.9293 38.6296 73.7373 38.7495V33.8799C74.8369 34.9774 76.1372 34.7837 77.3851 34.7929C81.0679 34.8022 84.7594 34.8022 88.4421 34.7929C88.8698 34.7929 89.3235 34.7745 89.7337 34.6454C90.0828 34.5255 90.3708 34.2303 90.7373 33.9813V38.6757C90.7373 38.6757 90.6675 38.7126 90.6326 38.7218C90.5715 38.5558 90.4842 38.399 90.4406 38.233C90.0915 36.8957 89.2974 36.121 88.032 36.0657C86.6269 36.0011 85.2044 36.0472 83.6947 36.0472" fill="black" fill-opacity="0.2"></path><path d="M102.701 28.8799C101.496 28.8799 100.737 28.1019 100.737 26.8753C100.737 25.7404 101.612 24.8983 102.755 24.88C103.746 24.8708 104.755 25.6763 104.737 26.9211C104.719 27.9188 104.184 28.8616 102.71 28.8707" fill="#142238"></path><path d="M102.701 28.8799C101.496 28.8799 100.737 28.1019 100.737 26.8753C100.737 25.7404 101.612 24.8983 102.755 24.88C103.746 24.8708 104.755 25.6763 104.737 26.9211C104.719 27.9188 104.184 28.8616 102.71 28.8707" fill="black" fill-opacity="0.2"></path><path d="M107.732 28.8799C106.514 28.8799 105.737 28.0984 105.737 26.894C105.737 25.6988 106.577 24.853 107.732 24.8805C109.014 24.9173 109.71 25.7815 109.737 26.9032C109.764 28.0892 108.915 28.8799 107.732 28.8799Z" fill="#142238"></path><path d="M107.732 28.8799C106.514 28.8799 105.737 28.0984 105.737 26.894C105.737 25.6988 106.577 24.853 107.732 24.8805C109.014 24.9173 109.71 25.7815 109.737 26.9032C109.764 28.0892 108.915 28.8799 107.732 28.8799Z" fill="black" fill-opacity="0.2"></path><path d="M183.764 3.87988C184.862 3.87988 185.719 4.74477 185.737 5.88866C185.755 6.95815 184.755 7.91603 183.657 7.87883C182.478 7.85093 181.737 7.06974 181.737 5.87936C181.737 4.72617 182.594 3.87988 183.764 3.87988Z" fill="#142238"></path><path d="M183.764 3.87988C184.862 3.87988 185.719 4.74477 185.737 5.88866C185.755 6.95815 184.755 7.91603 183.657 7.87883C182.478 7.85093 181.737 7.06974 181.737 5.87936C181.737 4.72617 182.594 3.87988 183.764 3.87988Z" fill="black" fill-opacity="0.2"></path><path d="M178.737 7.87471C177.657 7.9595 176.765 6.98908 176.738 5.92444C176.711 4.71848 177.639 3.87054 178.889 3.87996C179.969 3.88938 180.755 4.8127 180.737 6.0375C180.728 7.10214 179.871 7.88413 178.737 7.87471Z" fill="#142238"></path><path d="M178.737 7.87471C177.657 7.9595 176.765 6.98908 176.738 5.92444C176.711 4.71848 177.639 3.87054 178.889 3.87996C179.969 3.88938 180.755 4.8127 180.737 6.0375C180.728 7.10214 179.871 7.88413 178.737 7.87471Z" fill="black" fill-opacity="0.2"></path></svg>