<svg id="Group_127" data-name="Group 127" xmlns="http://www.w3.org/2000/svg" xmlns:xlink="http://www.w3.org/1999/xlink" width="165.148" height="54.016" viewBox="0 0 165.148 54.016">
  <defs>
    <clipPath id="clip-path">
      <path id="Path_59" data-name="Path 59" d="M61.776,46.739,54.35,42.445s-13.561-7.846-14.368-8.3-1.582-.194-1.582.775v33.8c0,.71.581,1.033,1.259.646S54.35,60.881,54.35,60.881l7.458-4.294,7.168-4.133c.839-.484.775-1.162.065-1.517C68.3,50.549,61.776,46.739,61.776,46.739Z" transform="translate(-38.4 -33.932)"/>
    </clipPath>
    <linearGradient id="linear-gradient" x1="0.5" x2="0.5" y2="1" gradientUnits="objectBoundingBox">
      <stop offset="0" stop-color="#257cb0"/>
      <stop offset="0.286" stop-color="#4a93b5"/>
      <stop offset="0.767" stop-color="#78bcbb"/>
      <stop offset="1" stop-color="#89cfbd"/>
    </linearGradient>
    <linearGradient id="linear-gradient-2" y1="0.5" x2="1.001" y2="0.5" gradientUnits="objectBoundingBox">
      <stop offset="0" stop-color="#52c1ad"/>
      <stop offset="1" stop-color="#dee89a"/>
    </linearGradient>
    <linearGradient id="linear-gradient-3" x1="0.5" y1="-0.001" x2="0.5" y2="1" gradientUnits="objectBoundingBox">
      <stop offset="0" stop-color="#ec413d"/>
      <stop offset="0.167" stop-color="#da4452"/>
      <stop offset="0.575" stop-color="#b0487a"/>
      <stop offset="0.862" stop-color="#954a92"/>
      <stop offset="1" stop-color="#8a4a9d"/>
    </linearGradient>
    <linearGradient id="linear-gradient-4" x1="0.5" y1="0.002" x2="0.5" y2="0.999" gradientUnits="objectBoundingBox">
      <stop offset="0" stop-color="#f58879"/>
      <stop offset="0.119" stop-color="#f69079"/>
      <stop offset="0.713" stop-color="#fcb877"/>
      <stop offset="1" stop-color="#fec874"/>
    </linearGradient>
  </defs>
  <path id="Path_57" data-name="Path 57" d="M165.148,46.719a7.289,7.289,0,0,1-7.3,7.3H7.3a7.289,7.289,0,0,1-7.3-7.3V7.3A7.289,7.289,0,0,1,7.3,0H157.851a7.289,7.289,0,0,1,7.3,7.3Z"/>
  <g id="PLAY_2_" transform="translate(12.398 10.956)">
    <g id="Group_21" data-name="Group 21" clip-path="url(#clip-path)">
      <path id="Path_58" data-name="Path 58" d="M38.4,32.2V68.781L56.836,50.507Z" transform="translate(-38.4 -32.759)" fill="url(#linear-gradient)"/>
    </g>
    <g id="Group_22" data-name="Group 22" clip-path="url(#clip-path)">
      <path id="Path_60" data-name="Path 60" d="M61.776,45.3,54.35,41,38.4,31.8v.129L56.836,50.236Z" transform="translate(-38.4 -32.488)" fill="url(#linear-gradient-2)"/>
    </g>
    <g id="Group_23" data-name="Group 23" clip-path="url(#clip-path)">
      <path id="Path_62" data-name="Path 62" d="M38.4,107.174v.129l15.95-9.2,7.426-4.294L56.836,88.9Z" transform="translate(-38.4 -71.152)" fill="url(#linear-gradient-3)"/>
    </g>
    <g id="Group_24" data-name="Group 24" clip-path="url(#clip-path)">
      <path id="Path_64" data-name="Path 64" d="M100.44,73.6,95.5,78.54l4.94,4.908,8.524-4.908Z" transform="translate(-77.064 -60.792)" fill="url(#linear-gradient-4)"/>
    </g>
  </g>
  <g id="Group_25" data-name="Group 25" transform="translate(123.562 20.534)">
    <path id="Path_66" data-name="Path 66" d="M387.672,87.91a4.673,4.673,0,0,1-1.9-.387,3.459,3.459,0,0,1-1.453-1.195h-.129a17.025,17.025,0,0,1,.129,1.776v4.391H382.7v-15.4h1.324l.226,1.453h.065a3.8,3.8,0,0,1,1.453-1.259,4.461,4.461,0,0,1,1.9-.387,3.911,3.911,0,0,1,3.261,1.453,7.7,7.7,0,0,1,0,8.136A4.113,4.113,0,0,1,387.672,87.91Zm-.258-9.654a2.8,2.8,0,0,0-2.357.9,4.574,4.574,0,0,0-.743,2.874v.355a5.414,5.414,0,0,0,.743,3.2,2.807,2.807,0,0,0,2.389.969,2.527,2.527,0,0,0,2.163-1.13,5.324,5.324,0,0,0,.775-3.067,5.186,5.186,0,0,0-.775-3.067A2.583,2.583,0,0,0,387.414,78.256Z" transform="translate(-382.7 -72.606)" fill="#f9f9f9"/>
    <path id="Path_67" data-name="Path 67" d="M419.914,78.71H418.3V63.6h1.614Z" transform="translate(-406.806 -63.6)" fill="#f9f9f9"/>
    <path id="Path_68" data-name="Path 68" d="M436.629,87.716l-.323-1.517h-.065a4.236,4.236,0,0,1-1.582,1.356,5,5,0,0,1-1.97.355A3.548,3.548,0,0,1,430.2,87.1a2.948,2.948,0,0,1-.9-2.325c0-2.163,1.711-3.261,5.166-3.39l1.808-.065v-.646a2.665,2.665,0,0,0-.549-1.84,2.238,2.238,0,0,0-1.711-.581,6.874,6.874,0,0,0-3,.807l-.484-1.227a7.278,7.278,0,0,1,1.711-.678,7.478,7.478,0,0,1,1.873-.258,4.111,4.111,0,0,1,2.809.839,3.48,3.48,0,0,1,.9,2.712v7.265Zm-3.648-1.13a3.283,3.283,0,0,0,2.357-.839,3.043,3.043,0,0,0,.872-2.325v-.969l-1.614.065a5.69,5.69,0,0,0-2.777.613,1.77,1.77,0,0,0-.839,1.647A1.616,1.616,0,0,0,431.5,86.1,2.11,2.11,0,0,0,432.981,86.586Z" transform="translate(-414.254 -72.606)" fill="#f9f9f9"/>
    <path id="Path_69" data-name="Path 69" d="M458.6,77.5h1.711l2.325,6.07a18.605,18.605,0,0,1,.936,3h.065c.1-.323.258-.9.517-1.679.258-.807,1.162-3.261,2.648-7.361h1.743l-4.552,12.075a6.076,6.076,0,0,1-1.582,2.551,3.32,3.32,0,0,1-2.228.743,7.417,7.417,0,0,1-1.453-.161V91.448a6.444,6.444,0,0,0,1.195.129,2.429,2.429,0,0,0,2.357-1.873l.581-1.517Z" transform="translate(-434.094 -73.012)" fill="#f9f9f9"/>
  </g>
  <g id="Group_27" data-name="Group 27" transform="translate(50.109 19.372)">
    <path id="Path_70" data-name="Path 70" d="M288.265,78.807a3.624,3.624,0,0,1-.291,6.167,1.579,1.579,0,0,0-.613,1.1,1.263,1.263,0,0,0,.581.969l.807.613c.969.839,1.873,1.582,1.873,3.132,0,2.1-2.034,4.2-5.844,4.2-3.229,0-4.778-1.55-4.778-3.2a3.163,3.163,0,0,1,1.711-2.712,9.724,9.724,0,0,1,4.262-1.033,2.228,2.228,0,0,1-.678-1.517,1.737,1.737,0,0,1,.226-.872,5.471,5.471,0,0,1-.71.032A3.5,3.5,0,0,1,281.13,82.2a3.894,3.894,0,0,1,1.421-2.97A6.106,6.106,0,0,1,286.522,78h4.585l-1.421.807Zm-1.582,9.88a2.609,2.609,0,0,0-.517-.032,8.394,8.394,0,0,0-2.325.355,2.48,2.48,0,0,0-1.9,2.292c0,1.582,1.55,2.712,3.907,2.712,2.131,0,3.261-1.033,3.261-2.389C289.1,90.5,288.395,89.882,286.683,88.687Zm.646-4.23a2.217,2.217,0,0,0,.549-1.614c0-1.614-.969-4.1-2.809-4.1a2.043,2.043,0,0,0-1.55.743,2.483,2.483,0,0,0-.484,1.647c0,1.485.872,3.971,2.777,3.971A2.259,2.259,0,0,0,287.329,84.457Z" transform="translate(-239.706 -72.188)" fill="#f9f9f9"/>
    <path id="Path_71" data-name="Path 71" d="M250.824,87.722a5.245,5.245,0,0,1-5.424-5.23,5.509,5.509,0,0,1,5.747-5.392,5.18,5.18,0,0,1,5.3,5.23A5.387,5.387,0,0,1,250.824,87.722Zm2.777-1.808a3.939,3.939,0,0,0,.678-2.454c0-1.97-.936-5.683-3.681-5.683a3.186,3.186,0,0,0-2,.743,3.34,3.34,0,0,0-1.033,2.712c0,2.2,1.1,5.812,3.778,5.812A2.74,2.74,0,0,0,253.6,85.914Z" transform="translate(-216.277 -71.579)" fill="#f9f9f9"/>
    <path id="Path_72" data-name="Path 72" d="M213.524,87.722a5.245,5.245,0,0,1-5.424-5.23,5.509,5.509,0,0,1,5.747-5.392,5.18,5.18,0,0,1,5.3,5.23A5.387,5.387,0,0,1,213.524,87.722Zm2.777-1.808a3.94,3.94,0,0,0,.678-2.454c0-1.97-.936-5.683-3.681-5.683a3.186,3.186,0,0,0-2,.743,3.34,3.34,0,0,0-1.033,2.712c0,2.2,1.1,5.812,3.778,5.812A2.74,2.74,0,0,0,216.3,85.914Z" transform="translate(-191.02 -71.579)" fill="#f9f9f9"/>
    <path id="Path_73" data-name="Path 73" d="M170.6,76.8l-3.2.743a24.589,24.589,0,0,1-3.681.387c-6.167,0-8.524-4.52-8.524-8.072,0-4.326,3.326-8.362,9.008-8.362a13.075,13.075,0,0,1,3.422.484,8.414,8.414,0,0,1,2.938,1.388l-1.84,1.776-.775.194.549-.9a6.365,6.365,0,0,0-4.778-2.1c-3.519,0-6.2,2.68-6.2,6.587a7.885,7.885,0,0,0,7.91,8.136,6.935,6.935,0,0,0,2.841-.549V72.9l-3.358.194,1.776-.969h4.746l-.581.549a.489.489,0,0,0-.226.355c-.032.194-.032.839-.032,1.065V76.8Z" transform="translate(-155.2 -61.016)" fill="#f9f9f9"/>
    <path id="Path_74" data-name="Path 74" d="M317.546,75.143c-.743-.065-.9-.194-.9-1.065V61.324c.1-.775.323-.9,1-1.324h-3.164l-1.679.807h1.711V74.594c0,.452-.1.517-.613,1.195h3.939l.839-.484C318.289,75.239,317.934,75.207,317.546,75.143Z" transform="translate(-261.916 -60)" fill="#f9f9f9"/>
    <path id="Path_75" data-name="Path 75" d="M338.6,86.88a8.178,8.178,0,0,1-.743.387,5.361,5.361,0,0,1-2.163.42,4.59,4.59,0,0,1-2.938-.872,5.682,5.682,0,0,1-2.26-4.682A5.052,5.052,0,0,1,335.569,77a4.359,4.359,0,0,1,2.292.613,3.767,3.767,0,0,1,1.55,2.2l-5.2,2.131-1.711.129c.549,2.809,2.454,4.456,4.585,4.456a5.708,5.708,0,0,0,2.712-.775Zm-2.066-6.619c.42-.161.646-.291.646-.613a2.213,2.213,0,0,0-2.2-1.9c-.9,0-2.551.678-2.551,3.067,0,.387.032.775.065,1.162Z" transform="translate(-273.901 -71.511)" fill="#f9f9f9"/>
    <g id="Group_26" data-name="Group 26" transform="translate(66.188 5.521)">
      <path id="Path_76" data-name="Path 76" d="M360.878,77.261v1.453h-.194V77.261H360.2V77.1h1.13v.161Z" transform="translate(-360.2 -77.1)" fill="#f9f9f9"/>
      <path id="Path_77" data-name="Path 77" d="M365.895,78.714V77.229h0l-.452,1.485h-.129l-.452-1.485h0v1.485H364.7V77.1h.291l.42,1.291h0l.42-1.291h.291v1.614Z" transform="translate(-363.247 -77.1)" fill="#f9f9f9"/>
    </g>
  </g>
  <g id="Group_28" data-name="Group 28" transform="translate(50.174 10.881)">
    <path id="Path_78" data-name="Path 78" d="M159.791,38.52h-1.1a6.126,6.126,0,0,0-.323-1.291h-1.614a6.129,6.129,0,0,0-.323,1.291H155.4a19.781,19.781,0,0,1,.807-2.228A16.276,16.276,0,0,0,157.014,34h1.324a23.075,23.075,0,0,0,.743,2.26C159.533,37.648,159.791,38.391,159.791,38.52Zm-1.614-1.97a19.963,19.963,0,0,1-.581-1.937h-.065a16.283,16.283,0,0,1-.613,1.937Z" transform="translate(-155.4 -33.903)" fill="#f9f9fa"/>
    <path id="Path_79" data-name="Path 79" d="M175.013,38.452h-.872a9.432,9.432,0,0,0-.969-1.517,8.053,8.053,0,0,1-1.13-1.97h-.065a11.168,11.168,0,0,1,.1,1.388c0,.581,0,1.259.065,2.1H171.3c.032-.71.065-1.517.065-2.357s-.032-1.55-.065-2.163h1.033a6.072,6.072,0,0,0,.872,1.453,7.111,7.111,0,0,1,1.033,1.84h.065a11.174,11.174,0,0,1-.1-1.388c0-.613-.032-1.259-.065-1.937h.872c-.032.581-.065,1.291-.065,2.163C174.981,36.967,174.981,37.742,175.013,38.452Z" transform="translate(-166.166 -33.835)" fill="#f9f9fa"/>
    <path id="Path_80" data-name="Path 80" d="M190.342,36.1a2.564,2.564,0,0,1-.646,1.711,2.219,2.219,0,0,1-1.776.743c-.355,0-.807,0-1.421-.032.032-.71.032-1.485.032-2.357,0-.839,0-1.55-.032-2.163h1.453a2.268,2.268,0,0,1,1.808.613A2.1,2.1,0,0,1,190.342,36.1Zm-.969.161a1.715,1.715,0,0,0-.387-1.13,1.509,1.509,0,0,0-1.195-.452,2.316,2.316,0,0,0-.42.032c.032.452.032.936.032,1.453,0,.549,0,1.1.032,1.647a2.132,2.132,0,0,0,.452.032,1.341,1.341,0,0,0,1.1-.452A1.561,1.561,0,0,0,189.374,36.26Z" transform="translate(-176.459 -33.903)" fill="#f9f9fa"/>
    <path id="Path_81" data-name="Path 81" d="M205.048,38.52h-1.033A7.484,7.484,0,0,0,203.4,37a.792.792,0,0,0-.678-.291h-.387c0,.581,0,1.195.032,1.808H201.4c.032-.71.032-1.485.032-2.357,0-.839,0-1.55-.032-2.163h1.647c1.065,0,1.582.355,1.582,1.1a1.194,1.194,0,0,1-.9,1.195v.065a1.1,1.1,0,0,1,.613.549A7.444,7.444,0,0,1,205.048,38.52Zm-1.291-3.2c0-.452-.291-.678-.9-.678a1.6,1.6,0,0,0-.581.065c.032.355.032.839.032,1.388h.323C203.4,36.1,203.757,35.84,203.757,35.324Z" transform="translate(-186.548 -33.903)" fill="#f9f9fa"/>
    <path id="Path_82" data-name="Path 82" d="M218.891,35.992a2.61,2.61,0,0,1-.646,1.776,2.149,2.149,0,0,1-1.614.71,2,2,0,0,1-1.518-.646,2.216,2.216,0,0,1-.613-1.647,2.61,2.61,0,0,1,.646-1.776,2.149,2.149,0,0,1,1.614-.71,2,2,0,0,1,1.517.646A2.216,2.216,0,0,1,218.891,35.992Zm-.936.1a1.847,1.847,0,0,0-.355-1.162,1.1,1.1,0,0,0-1.776,0,1.847,1.847,0,0,0-.355,1.162,1.685,1.685,0,0,0,.387,1.162,1.1,1.1,0,0,0,1.776,0A2.23,2.23,0,0,0,217.955,36.089Z" transform="translate(-195.418 -33.7)" fill="#f9f9fa"/>
    <path id="Path_83" data-name="Path 83" d="M232.169,38.52H231.2c.032-.71.032-1.517.032-2.357s0-1.55-.032-2.163h.969c-.032.581-.032,1.291-.032,2.163S232.136,37.81,232.169,38.52Z" transform="translate(-206.727 -33.903)" fill="#f9f9fa"/>
    <path id="Path_84" data-name="Path 84" d="M241.742,36.1a2.564,2.564,0,0,1-.646,1.711,2.219,2.219,0,0,1-1.776.743c-.355,0-.807,0-1.421-.032.032-.71.032-1.485.032-2.357,0-.839,0-1.55-.032-2.163h1.453a2.268,2.268,0,0,1,1.808.613A2.1,2.1,0,0,1,241.742,36.1Zm-.969.161a1.715,1.715,0,0,0-.387-1.13,1.509,1.509,0,0,0-1.195-.452,2.316,2.316,0,0,0-.42.032c.032.452.032.936.032,1.453,0,.549,0,1.1.032,1.647a2.132,2.132,0,0,0,.452.032,1.341,1.341,0,0,0,1.1-.452A1.561,1.561,0,0,0,240.774,36.26Z" transform="translate(-211.263 -33.903)" fill="#f9f9fa"/>
    <path id="Path_85" data-name="Path 85" d="M261.191,38.52h-1.1a6.128,6.128,0,0,0-.323-1.291h-1.614a6.124,6.124,0,0,0-.323,1.291H256.8a19.766,19.766,0,0,1,.807-2.228A16.277,16.277,0,0,0,258.414,34h1.324a23.076,23.076,0,0,0,.743,2.26A18.137,18.137,0,0,1,261.191,38.52Zm-1.582-1.97a19.96,19.96,0,0,1-.581-1.937h-.065a16.3,16.3,0,0,1-.613,1.937Z" transform="translate(-224.061 -33.903)" fill="#f9f9fa"/>
    <path id="Path_86" data-name="Path 86" d="M276.093,35.195a1.334,1.334,0,0,1-.613,1.227,2.788,2.788,0,0,1-1.517.387h-.226c0,.42,0,1,.032,1.711H272.8c.032-.678.032-1.453.032-2.357,0-.839,0-1.55-.032-2.163h1.743a1.915,1.915,0,0,1,1.1.291A1.009,1.009,0,0,1,276.093,35.195Zm-.9.194c0-.484-.323-.743-1-.743a3.219,3.219,0,0,0-.517.065c.032.452.032.936.032,1.485h.194C274.77,36.2,275.189,35.9,275.189,35.388Z" transform="translate(-234.895 -33.903)" fill="#f9f9fa"/>
    <path id="Path_87" data-name="Path 87" d="M288.893,35.195a1.334,1.334,0,0,1-.613,1.227,2.789,2.789,0,0,1-1.517.387h-.226c0,.42,0,1,.032,1.711H285.6c.032-.678.032-1.453.032-2.357,0-.839,0-1.55-.032-2.163h1.744a1.914,1.914,0,0,1,1.1.291A.945.945,0,0,1,288.893,35.195Zm-.872.194c0-.484-.323-.743-1-.743a3.219,3.219,0,0,0-.517.065c.032.452.032.936.032,1.485h.194C287.6,36.2,288.021,35.9,288.021,35.388Z" transform="translate(-243.562 -33.903)" fill="#f9f9fa"/>
    <path id="Path_88" data-name="Path 88" d="M307.691,35.992a2.61,2.61,0,0,1-.646,1.776,2.041,2.041,0,0,1-1.614.71,2,2,0,0,1-1.517-.646,2.216,2.216,0,0,1-.613-1.647,2.61,2.61,0,0,1,.646-1.776,2.149,2.149,0,0,1,1.614-.71,2,2,0,0,1,1.518.646A2.216,2.216,0,0,1,307.691,35.992Zm-.969.1a1.847,1.847,0,0,0-.355-1.162,1.1,1.1,0,0,0-1.776,0,1.847,1.847,0,0,0-.355,1.162,1.685,1.685,0,0,0,.387,1.162,1.1,1.1,0,0,0,1.776,0A1.967,1.967,0,0,0,306.722,36.089Z" transform="translate(-255.548 -33.7)" fill="#f9f9fa"/>
    <path id="Path_89" data-name="Path 89" d="M323.713,38.452h-.872a9.434,9.434,0,0,0-.969-1.517,8.052,8.052,0,0,1-1.13-1.97h-.065a11.171,11.171,0,0,1,.1,1.388c0,.581,0,1.259.065,2.1H320c.032-.71.065-1.517.065-2.357s-.032-1.55-.065-2.163h1.033a6.071,6.071,0,0,0,.872,1.453,7.113,7.113,0,0,1,1.033,1.84H323a11.177,11.177,0,0,1-.1-1.388c0-.613,0-1.259-.065-1.937h.872c-.032.581-.065,1.291-.065,2.163C323.648,36.967,323.681,37.742,323.713,38.452Z" transform="translate(-266.856 -33.835)" fill="#f9f9fa"/>
  </g>
</svg>
