<svg xmlns="http://www.w3.org/2000/svg" width="244" height="62" viewBox="0 0 244 62" fill="none"><path d="M6.40202 43.2465C3.56256 40.407 3.56256 35.7686 6.40202 32.9292L26.9661 12.3475C29.8056 9.50799 34.4439 9.50799 37.2834 12.3475L57.8475 32.9292C60.6869 35.7686 60.6869 40.407 57.8475 43.2465L61.7628 39.3312C65.0784 36.0155 65.0784 30.6012 61.7628 27.3031L38.1476 3.67033C34.8319 0.354682 29.4176 0.354682 26.1195 3.67033L2.48674 27.3031C0.828912 28.961 0 31.1302 0 33.3172C0 35.5041 0.828912 37.691 2.48674 39.3312L6.40202 43.2465Z" fill="#2C3048"></path><path d="M50.1759 51.1465C52.4686 48.8538 52.4686 45.0796 50.1759 42.7869L36.3136 28.9246C34.0032 26.6319 30.2467 26.6319 27.9363 28.9246L14.0741 42.7869C11.7637 45.0972 11.7637 48.8538 14.0741 51.1465L16.8254 53.8978C14.9912 52.0636 14.9912 49.0478 16.8254 47.196L28.7652 35.2561C30.5994 33.4219 33.6152 33.4219 35.4494 35.2561L47.3893 47.196C49.2235 49.0302 49.2235 52.046 47.3893 53.8978L50.1406 51.1465H50.1759Z" fill="#2C3048"></path><path d="M41.3397 59.4198C42.5213 58.2382 42.5213 56.3158 41.3397 55.1518L34.2675 48.0796C33.0858 46.8979 31.1635 46.8979 29.9995 48.0796L22.9272 55.1518C21.7456 56.3334 21.7456 58.2558 22.9272 59.4198L24.3382 60.8307C23.4034 59.896 23.4034 58.3616 24.3382 57.4093L30.4404 51.3071C31.3751 50.3723 32.9095 50.3723 33.8618 51.3071L39.964 57.4093C40.8988 58.344 40.8988 59.8784 39.964 60.8307L41.3749 59.4198H41.3397Z" fill="#2C3048"></path><path d="M87.4945 60.9711C86.9831 60.9358 85.7133 60.8476 85.7133 59.2427C85.7133 58.9252 85.8367 58.1669 86.066 57.4614L87.6356 52.5585H94.5138L96.2951 57.8318C96.6126 58.7841 96.6478 59.1192 96.6478 59.3838C96.6478 60.9358 95.184 60.9534 94.4962 60.9887V61.2885H102.803V60.9887C101.533 60.8123 100.475 60.4596 99.5226 57.6554L93.3322 39.5957H90.6867L84.7962 58.061C84.3553 59.4367 83.5087 60.8476 81.7627 60.9711V61.2709H87.4769V60.9711H87.4945ZM90.9513 42.1706H91.0042L94.1611 51.5003H87.9707L90.9513 42.1706Z" fill="#2C3048"></path><path d="M103.773 60.9711V61.2709H117.935L118.535 57.2851H118.271C117.618 59.9305 116.701 60.4596 113.667 60.4596C110.334 60.4596 109.417 60.4596 109.417 57.2851V42.6468C109.417 40.4247 110.846 40.2307 111.851 40.1777V39.8779H103.791V40.1777C104.743 40.2307 106.225 40.3894 106.225 42.6468V58.5196C106.225 60.8124 104.673 60.9182 103.791 60.9535" fill="#2C3048"></path><path d="M126.718 60.9711V61.2709H132.432V60.9711C131.921 60.9358 130.651 60.8476 130.651 59.2427C130.651 58.9252 130.775 58.1669 131.004 57.4614L132.574 52.5585H139.434L141.215 57.8318C141.55 58.7841 141.568 59.1192 141.568 59.3838C141.568 60.9358 140.104 60.9534 139.434 60.9887V61.2885H147.741V60.9887C146.471 60.8123 145.413 60.4596 144.478 57.6554L138.288 39.5957H135.642L129.752 58.061C129.311 59.4367 128.464 60.8476 126.718 60.9711ZM135.872 42.1706H135.924L139.081 51.5003H132.891L135.872 42.1706Z" fill="#2C3048"></path><path d="M156.664 60.9702C155.677 60.9173 154.231 60.7585 154.231 58.5363V50.5118H154.283L162.749 61.27H168.428V60.9702C166.488 60.7056 166.012 60.1765 164.477 58.3776C164.336 58.2013 164.301 58.2013 164.301 58.166L156.664 48.5012L161.814 42.7517C163.331 41.3056 164.195 40.4943 166.682 40.1592V39.8594H160.015V40.1592C161.109 40.2474 161.532 40.6883 161.532 41.2879C161.532 41.7641 161.003 42.4696 160.615 42.8928L154.213 49.965V42.593C154.213 40.3356 155.73 40.2121 156.647 40.1592V39.8594H148.587V40.1592C149.486 40.2121 151.021 40.2826 151.021 42.593V58.5011C151.021 60.7585 149.504 60.8996 148.587 60.9349V61.2347H156.647V60.9349L156.664 60.9702Z" fill="#2C3048"></path><path d="M181.901 60.9701V61.27H190.208V60.9701C188.938 60.7938 187.88 60.441 186.945 57.6368L180.755 39.5771H178.11L172.219 58.0425C171.778 59.4005 170.949 60.829 169.186 60.9525V61.2523H174.9V60.9525C174.388 60.9172 173.118 60.829 173.118 59.2241C173.118 58.9067 173.242 58.1483 173.471 57.4429L175.041 52.5399H181.901L183.683 57.7956C184 58.7479 184.035 59.083 184.035 59.3476C184.035 60.8996 182.572 60.9172 181.884 60.9525M175.341 51.4994L178.321 42.1697H178.374L181.531 51.4994H175.341Z" fill="#2C3048"></path><path d="M199.309 51.5346C200.685 52.2224 202.043 54.4269 202.078 54.4799C202.202 54.6562 202.202 54.6915 202.237 54.7268L205.094 59.0653C205.094 59.0653 205.147 59.1535 205.182 59.2241C205.235 59.277 205.694 59.9119 205.799 60.053C206.187 60.6526 206.452 60.9171 206.752 61.2699H211.813V60.9701C210.773 60.7584 209.591 60.2646 207.986 57.7073C207.951 57.6544 207.898 57.5839 207.898 57.5662L205.993 54.6209L205.852 54.4446C204.547 52.5398 203.507 51.0937 201.725 50.5469V50.4764C204.918 49.912 206.575 47.972 206.575 45.3618C206.575 43.122 205.323 41.2878 203.224 40.4589C202.396 40.1238 201.284 39.8945 198.533 39.8945H191.161V40.1944C192.061 40.1944 193.595 40.3354 193.595 42.6987V58.5539C193.595 60.2293 192.819 60.9877 191.196 60.9877V61.2875H199.221V60.9877C197.74 60.9877 196.805 60.2822 196.805 58.4833V51.076C198.286 51.1289 198.798 51.2877 199.362 51.5522M196.805 40.8822C197.281 40.7058 198.075 40.7058 198.621 40.7058C202.484 40.7058 203.172 44.0567 203.172 45.6087C203.172 50.0884 199.45 50.2824 196.805 50.2824V40.8822Z" fill="#2C3048"></path><path d="M221.514 40.1777V39.8779H213.507V40.1777C214.424 40.2307 215.923 40.3541 215.923 42.5939V58.5373C215.923 60.83 214.406 60.9535 213.507 60.9711V61.2709H221.514V60.9711C220.614 60.9358 219.098 60.8476 219.098 58.5373V42.5939C219.098 40.3717 220.614 40.2483 221.514 40.1777Z" fill="#2C3048"></path><path d="M231.708 39.5957L225.817 58.061C225.376 59.4367 224.547 60.8476 222.784 60.9711V61.2709H228.498V60.9711C227.986 60.9358 226.717 60.8476 226.717 59.2427C226.717 58.9252 226.84 58.1669 227.069 57.4614L228.639 52.5585H235.5L237.281 57.8318C237.598 58.7841 237.634 59.1016 237.634 59.3838C237.634 60.9358 236.17 60.9534 235.482 60.9887V61.2885H243.789V60.9887C242.519 60.8123 241.461 60.4596 240.526 57.6554L234.336 39.5957H231.69H231.708ZM228.974 51.5179L231.955 42.1883H232.008L235.164 51.5179H228.974Z" fill="#2C3048"></path><path d="M87.2475 10.1948C87.8648 10.1948 88.3762 10.0008 88.7995 9.61283C89.2228 9.22483 89.4344 8.71337 89.4344 8.07846C89.4344 7.44355 89.2228 6.93209 88.7995 6.52645C88.3762 6.12082 87.8648 5.90918 87.2299 5.90918C86.595 5.90918 86.1012 6.12082 85.6779 6.52645C85.2546 6.94973 85.043 7.46119 85.043 8.06082C85.043 8.66046 85.2546 9.18956 85.6779 9.59519C86.1012 9.98319 86.6126 10.1772 87.2475 10.1772" fill="#2C3048"></path><path d="M90.7396 27.0185C91.8683 27.0185 92.8913 26.7716 93.8083 26.2425C94.7783 25.6957 95.4838 24.9197 95.9247 23.9321V27.4065H119.769H133.384V27.2654C132.309 26.9127 131.621 25.9603 131.374 24.3907C131.286 23.9321 131.25 22.6623 131.25 20.5812V18.0239C131.25 15.9428 131.321 13.9146 131.462 11.9746C129.857 12.4861 127.988 12.8741 125.836 13.1562V13.4032C126.7 13.4561 127.247 13.8264 127.476 14.5143C127.6 14.867 127.653 15.5901 127.653 16.7012V21.1279C127.653 22.433 127.706 23.3325 127.829 23.8087C128.005 24.5494 128.411 25.2196 129.028 25.8545H119.787H102.838H99.6989V17.8299C99.6989 16.1192 99.7342 15.1139 99.7695 14.8141C99.9458 13.4913 100.44 12.733 101.269 12.539V12.345L100.087 12.3802H97.0534C96.5596 13.2268 96.1716 14.0733 95.8718 14.9375C94.5667 12.9799 92.9089 12.0099 90.8807 12.0099C88.7467 12.0099 86.9831 12.6801 85.6074 14.0204C84.2318 15.3608 83.5439 17.1068 83.5439 19.2585C83.5439 21.4101 84.1965 23.2443 85.5016 24.7257C86.8596 26.2601 88.6232 27.0185 90.7572 27.0185M88.0589 15.5901C88.8525 14.3555 90.0342 13.7383 91.5862 13.7383C93.1382 13.7383 94.3198 14.3555 95.1134 15.5724C95.7836 16.5954 96.1187 17.9534 96.1187 19.6288C96.1187 21.3043 95.7836 22.627 95.1311 23.6499C94.3374 24.8845 93.1734 25.4841 91.6214 25.4841C90.0694 25.4841 88.8878 24.8668 88.0765 23.6323C87.3887 22.5917 87.0536 21.2514 87.0536 19.6288C87.0536 18.0063 87.3887 16.6483 88.0589 15.5901Z" fill="#2C3048"></path><path d="M93.5258 10.0181C94.1431 10.0181 94.6546 9.82407 95.0778 9.43607C95.5011 9.04807 95.7128 8.53661 95.7128 7.9017C95.7128 7.26679 95.5011 6.75533 95.0778 6.3497C94.6546 5.94406 94.1431 5.73242 93.5082 5.73242C92.8733 5.73242 92.3795 5.94406 91.9562 6.3497C91.5329 6.77297 91.3213 7.28443 91.3213 7.88407C91.3213 8.4837 91.5329 9.0128 91.9562 9.41844C92.3795 9.80644 92.8909 10.0004 93.5258 10.0004" fill="#2C3048"></path><path d="M127.123 33.3862C127.741 33.3862 128.252 33.1922 128.675 32.7866C129.099 32.381 129.31 31.8695 129.31 31.2699C129.31 30.6702 129.099 30.1235 128.675 29.7179C128.252 29.3122 127.741 29.1006 127.106 29.1006C126.471 29.1006 125.977 29.3122 125.554 29.7355C125.131 30.1588 124.919 30.6702 124.919 31.2875C124.919 31.9048 125.131 32.4162 125.554 32.8219C125.977 33.2099 126.489 33.4215 127.123 33.4215" fill="#2C3048"></path><path d="M123.614 32.7866C124.037 32.381 124.248 31.8871 124.248 31.2699C124.248 30.6526 124.037 30.1235 123.614 29.7179C123.19 29.2946 122.661 29.1006 122.026 29.1006C121.391 29.1006 120.898 29.3122 120.474 29.7355C120.051 30.1588 119.839 30.6702 119.839 31.2875C119.839 31.9048 120.051 32.4162 120.474 32.8219C120.898 33.2099 121.427 33.4215 122.044 33.4215C122.661 33.4215 123.19 33.2275 123.631 32.8219" fill="#2C3048"></path><path d="M145.254 31.4654C146.1 30.3367 146.524 28.8376 146.506 26.9681C146.594 26.4214 146.594 24.7988 146.524 22.0828C146.453 19.3845 146.471 17.0388 146.612 15.0459C144.813 15.6984 143.19 16.0864 141.727 16.2099V16.4568C142.555 16.5097 143.085 16.8625 143.314 17.5326C143.42 17.8677 143.473 18.5732 143.473 19.649L143.525 26.2274C143.455 30.6894 142.573 32.9116 140.915 32.9116C139.681 32.9116 138.799 31.536 138.252 28.767H138.023L137.141 32.0651C137.988 33.1232 139.205 33.7052 140.757 33.8463C142.326 33.9698 143.808 33.1761 145.219 31.483" fill="#2C3048"></path><path d="M152.308 24.7277C152.061 26.121 151.426 26.9676 150.386 27.2674V27.4261H175.024H185.235H233.118C232.183 27.0028 231.601 26.0857 231.372 24.6572C231.231 23.7401 231.143 22.5761 231.143 21.1475V6.75621C231.143 4.51638 231.196 2.52347 231.319 0.742188C229.52 1.39474 227.898 1.78274 226.452 1.90619V2.1531C227.281 2.20601 227.81 2.55874 228.021 3.21129C228.127 3.54638 228.198 4.25184 228.198 5.32766V22.5055C228.198 24.2163 228.656 25.345 229.591 25.8741H214.424C212.395 23.987 211.39 21.9412 211.39 19.7366C211.39 18.0788 211.902 16.5973 212.925 15.2746C214.018 13.8284 215.376 13.123 216.981 13.123C219.097 13.123 220.596 14.7631 221.513 18.0259L221.743 18.0612L222.448 13.8284C220.79 12.7173 218.85 12.153 216.628 12.153C214.283 12.153 212.36 12.8231 210.861 14.1635C209.309 15.5391 208.533 17.391 208.533 19.719C208.533 22.4526 209.644 24.5161 211.849 25.8741H200.826C201.143 25.6625 201.461 25.4155 201.743 25.1686C203.242 23.7577 203.983 21.9235 203.983 19.6661C203.983 17.4086 203.207 15.4862 201.672 14.1106C200.191 12.735 198.286 12.0648 195.923 12.0648C193.56 12.0648 191.69 12.7173 190.191 14.0401C188.604 15.4333 187.81 17.2675 187.81 19.5426C187.81 21.8177 188.551 23.6872 190.032 25.1157C190.315 25.3979 190.632 25.6625 190.967 25.8917H185.218H175.006H158.058H155.394V6.75621C155.394 4.46347 155.43 2.47056 155.553 0.742188C153.754 1.39474 152.114 1.78274 150.668 1.90619V2.1531C151.514 2.20601 152.044 2.55874 152.273 3.21129C152.379 3.54638 152.449 4.25184 152.449 5.32766V21.2534C152.449 23.1228 152.396 24.2692 152.326 24.7277M192.184 14.9395C192.995 13.3522 194.248 12.5586 195.941 12.5586C197.634 12.5586 198.974 13.3522 199.768 14.9219C200.385 16.1212 200.685 17.6908 200.685 19.6132C200.685 22.629 199.997 24.7101 198.604 25.8565H193.383C191.972 24.7101 191.267 22.629 191.267 19.5779C191.267 17.7084 191.567 16.1564 192.184 14.9219" fill="#2C3048"></path><path d="M193.366 9.11964C193.983 9.11964 194.494 8.92564 194.918 8.52C195.341 8.11436 195.553 7.6029 195.553 7.00327C195.553 6.40363 195.341 5.8569 194.918 5.45126C194.494 5.04562 193.983 4.83398 193.348 4.83398C192.713 4.83398 192.202 5.04562 191.778 5.45126C191.355 5.87453 191.144 6.38599 191.144 6.98563C191.144 7.58527 191.355 8.11436 191.778 8.52C192.202 8.908 192.731 9.102 193.348 9.102" fill="#2C3048"></path><path d="M198.886 9.11964C199.503 9.11964 200.032 8.92564 200.455 8.52C200.879 8.11436 201.09 7.6029 201.09 7.00327C201.09 6.40363 200.879 5.8569 200.455 5.45126C200.032 5.04562 199.503 4.83398 198.886 4.83398C198.268 4.83398 197.757 5.04562 197.334 5.45126C196.91 5.87453 196.699 6.38599 196.699 6.98563C196.699 7.58527 196.91 8.11436 197.334 8.52C197.757 8.908 198.268 9.102 198.903 9.102" fill="#2C3048"></path><path d="M238.797 24.7277C238.55 26.121 237.915 26.9676 236.875 27.2674V27.5143C237.862 27.4437 239.079 27.4261 240.543 27.4261C241.654 27.4261 242.8 27.4614 244 27.5143V27.2674C242.959 26.9852 242.324 26.121 242.095 24.6748C242.06 24.3397 241.989 23.1581 241.883 21.1475V6.75621C241.883 4.51638 241.919 2.52347 242.042 0.742188C240.243 1.39474 238.603 1.78274 237.157 1.90619V2.1531C238.003 2.20601 238.532 2.55874 238.744 3.22892C238.85 3.54638 238.92 4.26947 238.92 5.34529V21.271C238.92 23.1404 238.867 24.2868 238.797 24.7454" fill="#2C3048"></path></svg>