<svg xmlns="http://www.w3.org/2000/svg" width="234" height="58" viewBox="0 0 234 58" fill="none"><path d="M6.58468 40.6821C3.86691 37.9643 3.86691 33.5247 6.58468 30.8069L26.2674 11.1073C28.9852 8.38951 33.4248 8.38951 36.1426 11.1073L55.8253 30.8069C58.5431 33.5247 58.5431 37.9643 55.8253 40.6821L59.5728 36.9346C62.7464 33.761 62.7464 28.5787 59.5728 25.422L36.9697 2.80204C33.7962 -0.371512 28.6138 -0.371512 25.4572 2.80204L2.83719 25.422C1.25042 27.0088 0.457031 29.0851 0.457031 31.1783C0.457031 33.2715 1.25042 35.3647 2.83719 36.9346L6.58468 40.6821Z" fill="white"></path><path d="M48.4821 48.2445C50.6766 46.05 50.6766 42.4376 48.4821 40.2431L35.214 26.975C33.0026 24.7805 29.4071 24.7805 27.1957 26.975L13.9276 40.2431C11.7162 42.4545 11.7162 46.05 13.9276 48.2445L16.5609 50.8779C14.8054 49.1223 14.8054 46.2357 16.5609 44.4632L27.9891 33.0351C29.7447 31.2795 32.6312 31.2795 34.3868 33.0351L45.815 44.4632C47.5706 46.2188 47.5706 49.1054 45.815 50.8779L48.4483 48.2445H48.4821Z" fill="white"></path><path d="M40.0248 56.1624C41.1558 55.0314 41.1558 53.1914 40.0248 52.0773L33.2557 45.3082C32.1247 44.1772 30.2847 44.1772 29.1706 45.3082L22.4015 52.0773C21.2705 53.2083 21.2705 55.0483 22.4015 56.1624L23.7519 57.5129C22.8572 56.6182 22.8572 55.1496 23.7519 54.238L29.5926 48.3974C30.4873 47.5027 31.9559 47.5027 32.8674 48.3974L38.7081 54.238C39.6028 55.1327 39.6028 56.6013 38.7081 57.5129L40.0586 56.1624H40.0248Z" fill="white"></path><path d="M84.2015 57.6477C83.712 57.614 82.4966 57.5296 82.4966 55.9934C82.4966 55.6896 82.6147 54.9637 82.8342 54.2885L84.3366 49.5957H90.92L92.6249 54.643C92.9288 55.5545 92.9625 55.8753 92.9625 56.1285C92.9625 57.614 91.5615 57.6309 90.9031 57.6646V57.9516H98.8539V57.6646C97.6385 57.4958 96.6256 57.1582 95.7141 54.4742L89.789 37.1885H87.2569L81.6188 54.8624C81.1968 56.1791 80.3865 57.5296 78.7153 57.6477V57.9347H84.1846V57.6477H84.2015ZM87.5101 39.653H87.5608L90.5824 48.5829H84.6573L87.5101 39.653Z" fill="white"></path><path d="M99.7822 57.6482V57.9351H113.337L113.911 54.1201H113.658C113.033 56.6522 112.156 57.1586 109.252 57.1586C106.062 57.1586 105.184 57.1586 105.184 54.1201V40.1092C105.184 37.9823 106.551 37.7966 107.514 37.746V37.459H99.7991V37.746C100.711 37.7966 102.129 37.9485 102.129 40.1092V55.3018C102.129 57.4962 100.643 57.5975 99.7991 57.6313" fill="white"></path><path d="M121.744 57.6477V57.9347H127.213V57.6477C126.723 57.614 125.508 57.5296 125.508 55.9934C125.508 55.6896 125.626 54.9637 125.846 54.2885L127.348 49.5957H133.915L135.619 54.643C135.94 55.5545 135.957 55.8753 135.957 56.1285C135.957 57.614 134.556 57.6309 133.915 57.6646V57.9516H141.865V57.6646C140.65 57.4958 139.637 57.1582 138.742 54.4742L132.817 37.1885H130.285L124.647 54.8624C124.225 56.1791 123.415 57.5296 121.744 57.6477ZM130.505 39.653H130.555L133.577 48.5829H127.652L130.505 39.653Z" fill="white"></path><path d="M150.407 57.6465C149.462 57.5958 148.078 57.4439 148.078 55.317V47.6363H148.128L156.231 57.9335H161.666V57.6465C159.81 57.3933 159.354 56.8869 157.885 55.165C157.75 54.9962 157.716 54.9962 157.716 54.9625L150.407 45.7119L155.336 40.2088C156.788 38.8246 157.615 38.0481 159.995 37.7274V37.4404H153.614V37.7274C154.661 37.8118 155.066 38.2338 155.066 38.8078C155.066 39.2635 154.56 39.9388 154.188 40.3439L148.061 47.113V40.0569C148.061 37.8962 149.512 37.778 150.39 37.7274V37.4404H142.676V37.7274C143.537 37.778 145.005 37.8456 145.005 40.0569V55.2832C145.005 57.4439 143.554 57.579 142.676 57.6127V57.8997H150.39V57.6127L150.407 57.6465Z" fill="white"></path><path d="M174.563 57.647V57.934H182.514V57.647C181.298 57.4782 180.286 57.1406 179.391 54.4566L173.466 37.1709H170.934L165.296 54.8449C164.874 56.1447 164.08 57.512 162.392 57.6302V57.9171H167.861V57.6302C167.372 57.5964 166.156 57.512 166.156 55.9759C166.156 55.672 166.275 54.9461 166.494 54.2709L167.996 49.5781H174.563L176.268 54.6085C176.572 55.5201 176.606 55.8408 176.606 56.094C176.606 57.5795 175.204 57.5964 174.546 57.6302M168.283 48.5822L171.136 39.6523H171.187L174.208 48.5822H168.283Z" fill="white"></path><path d="M191.224 48.6158C192.541 49.2741 193.841 51.3842 193.874 51.4348C193.993 51.6037 193.993 51.6374 194.026 51.6712L196.761 55.8238C196.761 55.8238 196.812 55.9082 196.845 55.9757C196.896 56.0264 197.335 56.6341 197.436 56.7691C197.808 57.343 198.061 57.5963 198.348 57.9339H203.192V57.6469C202.196 57.4443 201.065 56.9717 199.529 54.524C199.496 54.4733 199.445 54.4058 199.445 54.3889L197.622 51.5699L197.487 51.4011C196.238 49.578 195.242 48.1938 193.537 47.6705V47.603C196.592 47.0628 198.179 45.2059 198.179 42.7076C198.179 40.5638 196.98 38.8082 194.972 38.0148C194.178 37.6941 193.115 37.4746 190.481 37.4746H183.425V37.7616C184.286 37.7616 185.755 37.8966 185.755 40.1586V55.3343C185.755 56.9379 185.012 57.6638 183.459 57.6638V57.9508H191.14V57.6638C189.722 57.6638 188.827 56.9886 188.827 55.2667V48.1769C190.245 48.2275 190.735 48.3795 191.275 48.6327M188.827 38.4199C189.283 38.2511 190.042 38.2511 190.566 38.2511C194.263 38.2511 194.921 41.4584 194.921 42.9439C194.921 47.2316 191.359 47.4173 188.827 47.4173V38.4199Z" fill="white"></path><path d="M212.477 37.746V37.459H204.813V37.746C205.691 37.7966 207.126 37.9148 207.126 40.0586V55.3186C207.126 57.5131 205.674 57.6313 204.813 57.6482V57.9351H212.477V57.6482C211.616 57.6144 210.164 57.53 210.164 55.3186V40.0586C210.164 37.9316 211.616 37.8135 212.477 37.746Z" fill="white"></path><path d="M222.234 37.1885L216.596 54.8624C216.174 56.1791 215.38 57.5296 213.692 57.6477V57.9347H219.162V57.6477C218.672 57.614 217.457 57.5296 217.457 55.9934C217.457 55.6896 217.575 54.9637 217.794 54.2885L219.297 49.5957H225.863L227.568 54.643C227.872 55.5545 227.906 55.8584 227.906 56.1285C227.906 57.614 226.505 57.6309 225.846 57.6646V57.9516H233.797V57.6646C232.582 57.4958 231.569 57.1582 230.674 54.4742L224.749 37.1885H222.217H222.234ZM219.617 48.5997L222.47 39.6699H222.521L225.543 48.5997H219.617Z" fill="white"></path><path d="M83.966 9.04827C84.5568 9.04827 85.0464 8.86258 85.4515 8.49121C85.8566 8.11984 86.0592 7.6303 86.0592 7.0226C86.0592 6.4149 85.8566 5.92536 85.4515 5.53711C85.0464 5.14886 84.5568 4.94629 83.9491 4.94629C83.3414 4.94629 82.8688 5.14886 82.4637 5.53711C82.0585 5.94224 81.856 6.43178 81.856 7.00572C81.856 7.57966 82.0585 8.08608 82.4637 8.47433C82.8688 8.8457 83.3583 9.03139 83.966 9.03139" fill="white"></path><path d="M87.3082 25.1511C88.3885 25.1511 89.3676 24.9148 90.2454 24.4083C91.1738 23.885 91.8491 23.1423 92.2711 22.197V25.5225H115.094H128.125V25.3874C127.096 25.0498 126.437 24.1383 126.201 22.6359C126.117 22.197 126.083 20.9816 126.083 18.9897V16.542C126.083 14.5501 126.15 12.6088 126.285 10.752C124.749 11.2415 122.96 11.6129 120.901 11.883V12.1193C121.728 12.1699 122.251 12.5244 122.47 13.1828C122.589 13.5204 122.639 14.2125 122.639 15.2759V19.513C122.639 20.7621 122.69 21.623 122.808 22.0788C122.977 22.7878 123.365 23.4293 123.956 24.037H115.11H98.8883H95.8835V16.3563C95.8835 14.7189 95.9173 13.7567 95.951 13.4697C96.1198 12.2037 96.5925 11.4778 97.3859 11.2921V11.1064L96.2549 11.1402H93.3514C92.8788 11.9505 92.5074 12.7607 92.2204 13.5879C90.9713 11.7141 89.3845 10.7857 87.4432 10.7857C85.4007 10.7857 83.7126 11.4272 82.3959 12.7101C81.0792 13.993 80.4209 15.6642 80.4209 17.7236C80.4209 19.7831 81.0455 21.5386 82.2946 22.9566C83.5944 24.4252 85.2825 25.1511 87.3251 25.1511M84.7423 14.2125C85.502 13.0308 86.633 12.44 88.1184 12.44C89.6039 12.44 90.7349 13.0308 91.4946 14.1956C92.136 15.1747 92.4568 16.4745 92.4568 18.0781C92.4568 19.6818 92.136 20.9478 91.5114 21.9269C90.7518 23.1085 89.6377 23.6825 88.1522 23.6825C86.6667 23.6825 85.5357 23.0917 84.7592 21.91C84.1009 20.9141 83.7801 19.6311 83.7801 18.0781C83.7801 16.5251 84.1009 15.2253 84.7423 14.2125Z" fill="white"></path><path d="M89.9748 8.87737C90.5656 8.87737 91.0552 8.69169 91.4603 8.32031C91.8654 7.94894 92.068 7.4594 92.068 6.8517C92.068 6.244 91.8654 5.75446 91.4603 5.36621C91.0552 4.97796 90.5656 4.77539 89.9579 4.77539C89.3502 4.77539 88.8776 4.97796 88.4724 5.36621C88.0673 5.77135 87.8647 6.26088 87.8647 6.83482C87.8647 7.40876 88.0673 7.91518 88.4724 8.30343C88.8776 8.6748 89.3671 8.86049 89.9748 8.86049" fill="white"></path><path d="M122.133 31.2455C122.723 31.2455 123.213 31.0598 123.618 30.6716C124.023 30.2833 124.226 29.7938 124.226 29.2199C124.226 28.6459 124.023 28.1226 123.618 27.7344C123.213 27.3461 122.723 27.1436 122.116 27.1436C121.508 27.1436 121.035 27.3461 120.63 27.7513C120.225 28.1564 120.022 28.6459 120.022 29.2367C120.022 29.8276 120.225 30.3171 120.63 30.7054C121.035 31.0767 121.525 31.2793 122.133 31.2793" fill="white"></path><path d="M118.773 30.6716C119.178 30.2833 119.381 29.8107 119.381 29.2199C119.381 28.629 119.178 28.1226 118.773 27.7344C118.368 27.3292 117.862 27.1436 117.254 27.1436C116.646 27.1436 116.173 27.3461 115.768 27.7513C115.363 28.1564 115.161 28.6459 115.161 29.2367C115.161 29.8276 115.363 30.3171 115.768 30.7054C116.173 31.0767 116.68 31.2793 117.271 31.2793C117.862 31.2793 118.368 31.0936 118.79 30.7054" fill="white"></path><path d="M139.485 29.4072C140.296 28.3269 140.701 26.892 140.684 25.1027C140.768 24.5794 140.768 23.0264 140.701 20.4268C140.633 17.844 140.65 15.5989 140.785 13.6914C139.063 14.316 137.51 14.6874 136.109 14.8055V15.0419C136.903 15.0925 137.409 15.4301 137.628 16.0716C137.73 16.3923 137.78 17.0675 137.78 18.0972L137.831 24.3937C137.763 28.6645 136.919 30.7914 135.333 30.7914C134.151 30.7914 133.307 29.4747 132.784 26.8245H132.564L131.72 29.9812C132.53 30.994 133.695 31.5511 135.181 31.6861C136.683 31.8043 138.101 31.0446 139.452 29.4241" fill="white"></path><path d="M146.238 22.9576C146.002 24.2912 145.394 25.1014 144.398 25.3884V25.5403H167.98H177.754H223.585C222.69 25.1352 222.133 24.2574 221.914 22.8901C221.779 22.0123 221.694 20.8982 221.694 19.5308V5.75628C221.694 3.61244 221.745 1.70494 221.863 0C220.141 0.624581 218.588 0.995954 217.204 1.11412V1.35045C217.997 1.40109 218.504 1.7387 218.706 2.36328C218.808 2.68401 218.875 3.35924 218.875 4.38895V20.8306C218.875 22.4681 219.314 23.5484 220.209 24.0548H205.691C203.75 22.2486 202.788 20.2905 202.788 18.1804C202.788 16.5936 203.277 15.1756 204.256 13.9096C205.303 12.5254 206.603 11.8502 208.139 11.8502C210.165 11.8502 211.6 13.4201 212.477 16.543L212.697 16.5767L213.372 12.5254C211.785 11.4619 209.928 10.9217 207.801 10.9217C205.556 10.9217 203.716 11.5632 202.281 12.8461C200.796 14.1628 200.053 15.9353 200.053 18.1635C200.053 20.78 201.117 22.755 203.227 24.0548H192.676C192.98 23.8523 193.284 23.6159 193.554 23.3796C194.989 22.0292 195.698 20.2736 195.698 18.1129C195.698 15.9521 194.955 14.1122 193.487 12.7955C192.069 11.4788 190.246 10.8373 187.984 10.8373C185.722 10.8373 183.932 11.4619 182.497 12.728C180.978 14.0615 180.219 15.8171 180.219 17.9947C180.219 20.1723 180.928 21.9616 182.345 23.329C182.616 23.5991 182.919 23.8523 183.24 24.0717H177.737H167.963H151.741H149.192V5.75628C149.192 3.5618 149.226 1.6543 149.344 0C147.622 0.624581 146.052 0.995954 144.668 1.11412V1.35045C145.478 1.40109 145.985 1.7387 146.204 2.36328C146.305 2.68401 146.373 3.35924 146.373 4.38895V19.6321C146.373 21.4215 146.322 22.5187 146.255 22.9576M184.405 13.5889C185.181 12.0696 186.38 11.31 188 11.31C189.621 11.31 190.904 12.0696 191.664 13.572C192.254 14.7199 192.541 16.2222 192.541 18.0622C192.541 20.9488 191.883 22.9407 190.549 24.0379H185.553C184.202 22.9407 183.527 20.9488 183.527 18.0285C183.527 16.2391 183.814 14.7536 184.405 13.572" fill="white"></path><path d="M185.536 8.01897C186.126 8.01897 186.616 7.83329 187.021 7.44503C187.426 7.05678 187.629 6.56724 187.629 5.9933C187.629 5.41936 187.426 4.89607 187.021 4.50781C186.616 4.11956 186.126 3.91699 185.519 3.91699C184.911 3.91699 184.422 4.11956 184.016 4.50781C183.611 4.91295 183.409 5.40248 183.409 5.97642C183.409 6.55036 183.611 7.05678 184.016 7.44503C184.422 7.81641 184.928 8.00209 185.519 8.00209" fill="white"></path><path d="M190.819 8.01897C191.41 8.01897 191.916 7.83329 192.321 7.44503C192.726 7.05678 192.929 6.56724 192.929 5.9933C192.929 5.41936 192.726 4.89607 192.321 4.50781C191.916 4.11956 191.41 3.91699 190.819 3.91699C190.228 3.91699 189.738 4.11956 189.333 4.50781C188.928 4.91295 188.726 5.40248 188.726 5.97642C188.726 6.55036 188.928 7.05678 189.333 7.44503C189.738 7.81641 190.228 8.00209 190.836 8.00209" fill="white"></path><path d="M229.02 22.9576C228.784 24.2912 228.176 25.1014 227.18 25.3884V25.6247C228.125 25.5572 229.29 25.5403 230.691 25.5403C231.755 25.5403 232.852 25.5741 234 25.6247V25.3884C233.004 25.1183 232.396 24.2912 232.177 22.9069C232.143 22.5862 232.076 21.4552 231.974 19.5308V5.75628C231.974 3.61244 232.008 1.70494 232.126 0C230.404 0.624581 228.834 0.995954 227.45 1.11412V1.35045C228.261 1.40109 228.767 1.7387 228.97 2.38016C229.071 2.68401 229.138 3.37612 229.138 4.40583V19.649C229.138 21.4383 229.088 22.5356 229.02 22.9745" fill="white"></path></svg>