<svg xmlns="http://www.w3.org/2000/svg" width="26" height="34" viewBox="0 0 26 34" fill="none"><path d="M12.75 0C5.71977 0 0 5.56113 0 12.3959C0 18.9982 5.34152 24.3965 12.0416 24.757V33.2917C12.0416 33.6829 12.3588 34.0001 12.75 34.0001C13.1412 34.0001 13.4584 33.6829 13.4584 33.2917V24.757C20.1585 24.3964 25.5 18.9982 25.5 12.3959C25.5 5.56113 19.7802 0 12.75 0ZM13.4584 23.3403V20.8349L17.5008 16.7924C17.7726 16.5111 17.7649 16.0626 17.4834 15.7908C17.2089 15.5256 16.7738 15.5256 16.4992 15.7908L13.4584 18.8317V9.91664C13.4584 9.52544 13.1412 9.20829 12.75 9.20829C12.3588 9.20829 12.0416 9.52544 12.0416 9.91664V23.3403C6.12279 22.9833 1.41664 18.2183 1.41664 12.3958C1.41664 6.34166 6.50104 1.41664 12.75 1.41664C18.999 1.41664 24.0834 6.34166 24.0834 12.3958C24.0834 18.2184 19.3771 22.9833 13.4584 23.3403Z" fill="#AE917C"></path></svg>