<svg xmlns="http://www.w3.org/2000/svg" width="34" height="31" viewBox="0 0 34 31" fill="none"><path d="M33.7661 14.306L17.4435 0.165401C17.1889 -0.0551337 16.811 -0.0551337 16.5565 0.165401L0.233849 14.306C0.0200876 14.4912 -0.0560803 14.7896 0.0427321 15.0546C0.141544 15.3196 0.394552 15.4953 0.677376 15.4953H4.78088V29.7749C4.78088 30.1489 5.08409 30.4522 5.45815 30.4522H28.5419C28.9159 30.4522 29.2191 30.1489 29.2192 29.7749V15.4953H33.3227C33.6055 15.4953 33.8585 15.3196 33.9574 15.0546C34.056 14.7897 33.9799 14.4912 33.7661 14.306ZM28.5418 14.1407C28.1677 14.1407 27.8645 14.444 27.8645 14.818V29.0977H6.13536V14.818C6.13536 14.444 5.83215 14.1407 5.45809 14.1407H2.49345L16.9999 1.57348L31.5064 14.1407H28.5418Z" fill="#AE917C"></path><path d="M20.386 12.6152C19.077 12.6152 17.8504 13.1788 16.9995 14.1324C16.1486 13.1788 14.922 12.6152 13.6131 12.6152C11.1109 12.6152 9.0752 14.6509 9.0752 17.1531C9.0752 19.5807 11.7215 21.8446 13.1432 23.0609L13.1727 23.086C14.0106 23.8029 16.532 25.9751 16.5574 25.9969C16.6844 26.1063 16.8419 26.161 16.9994 26.161C17.1569 26.161 17.3145 26.1063 17.4415 25.9969C17.4668 25.975 19.9883 23.8029 20.8262 23.086L20.8556 23.0609C22.2773 21.8446 24.9237 19.5807 24.9237 17.1531C24.9238 14.6509 22.8881 12.6152 20.386 12.6152ZM19.9752 22.0316L19.9456 22.0567C19.3213 22.5908 17.7666 23.9293 16.9995 24.5899C16.2324 23.9293 14.6776 22.5909 14.0534 22.0567L14.0238 22.0316C12.8573 21.0335 10.4298 18.957 10.4298 17.1531C10.4298 15.3979 11.8578 13.9699 13.6131 13.9699C14.7756 13.9699 15.8456 14.6038 16.4057 15.6246C16.5246 15.8414 16.7522 15.976 16.9995 15.976C17.2468 15.976 17.4744 15.8413 17.5933 15.6246C18.1534 14.6039 19.2234 13.9699 20.386 13.9699C22.1412 13.9699 23.5692 15.3979 23.5692 17.1531C23.5692 18.957 21.1418 21.0336 19.9752 22.0316Z" fill="#AE917C"></path></svg>