<svg xmlns="http://www.w3.org/2000/svg" width="34" height="34" viewBox="0 0 34 34" fill="none"><path d="M32.5 31.7025H30V21.7025C31.0117 21.496 31.9107 20.9212 32.5227 20.0895C33.1346 19.2578 33.416 18.2285 33.3122 17.2012C33.2085 16.1739 32.7269 15.2217 31.961 14.5292C31.195 13.8367 30.1992 13.4533 29.1667 13.4533C28.1341 13.4533 27.1383 13.8367 26.3724 14.5292C25.6064 15.2217 25.1249 16.1739 25.0211 17.2012C24.9173 18.2285 25.1987 19.2578 25.8107 20.0895C26.4226 20.9212 27.3216 21.496 28.3333 21.7025V31.7025H21.6667V0.869151C21.6751 0.685335 21.6224 0.503902 21.5169 0.353156C21.4114 0.20241 21.2589 0.0908281 21.0833 0.0358179C20.9141 -0.0149164 20.7334 -0.0116832 20.5661 0.0450682C20.3988 0.101819 20.2534 0.20927 20.15 0.352485C18.894 2.1859 17.3123 3.77329 15.4833 5.03582C13.3102 5.67498 11.0755 6.0828 8.81667 6.25248C7.74505 6.40999 6.76717 6.95152 6.06506 7.77627C5.36295 8.60102 4.98445 9.6528 5 10.7358V11.7025H2.5C1.83696 11.7025 1.20107 11.9659 0.732233 12.4347C0.263392 12.9036 0 13.5394 0 14.2025V32.5358C0 32.7568 0.0877975 32.9688 0.244078 33.1251C0.400358 33.2814 0.61232 33.3691 0.833333 33.3691H32.5C32.721 33.3691 32.933 33.2814 33.0893 33.1251C33.2455 32.9688 33.3333 32.7568 33.3333 32.5358C33.3333 32.3148 33.2455 32.1028 33.0893 31.9466C32.933 31.7903 32.721 31.7025 32.5 31.7025ZM26.6667 17.5358C26.6667 17.0414 26.8133 16.558 27.088 16.1469C27.3627 15.7358 27.7531 15.4153 28.21 15.2261C28.6668 15.0369 29.1694 14.9874 29.6544 15.0839C30.1393 15.1803 30.5848 15.4184 30.9344 15.7681C31.2841 16.1177 31.5222 16.5631 31.6186 17.0481C31.7151 17.533 31.6656 18.0357 31.4764 18.4925C31.2871 18.9493 30.9667 19.3398 30.5556 19.6145C30.1445 19.8892 29.6611 20.0358 29.1667 20.0358C28.5036 20.0358 27.8677 19.7724 27.3989 19.3036C26.9301 18.8347 26.6667 18.1989 26.6667 17.5358ZM6.66667 31.7025V26.7025H10V31.7025H6.66667ZM11.6667 31.7025V25.8692C11.6667 25.6481 11.5789 25.4362 11.4226 25.2799C11.2663 25.1236 11.0543 25.0358 10.8333 25.0358H5.83333C5.61232 25.0358 5.40036 25.1236 5.24408 25.2799C5.0878 25.4362 5 25.6481 5 25.8692V31.7025H1.66667V14.2025C1.66667 13.9815 1.75446 13.7695 1.91074 13.6132C2.06702 13.4569 2.27899 13.3692 2.5 13.3692H14.1667C14.3877 13.3692 14.5996 13.4569 14.7559 13.6132C14.9122 13.7695 15 13.9815 15 14.2025V31.7025H11.6667ZM16.6667 31.7025V14.2025C16.6667 13.5394 16.4033 12.9036 15.9344 12.4347C15.4656 11.9659 14.8297 11.7025 14.1667 11.7025H6.66667V10.7358C6.66169 10.0607 6.90523 9.40736 7.35089 8.90023C7.79655 8.3931 8.41319 8.06763 9.08333 7.98582C11.4883 7.85115 13.8674 7.42012 16.1667 6.70248C17.6439 5.84396 18.9447 4.71282 20 3.36915V31.7025H16.6667Z" fill="#AE917C"></path><path d="M10.8333 18.3691H5.83333C5.61232 18.3691 5.40036 18.4569 5.24408 18.6132C5.0878 18.7695 5 18.9815 5 19.2025C5 19.4235 5.0878 19.6354 5.24408 19.7917C5.40036 19.948 5.61232 20.0358 5.83333 20.0358H10.8333C11.0543 20.0358 11.2663 19.948 11.4226 19.7917C11.5789 19.6354 11.6667 19.4235 11.6667 19.2025C11.6667 18.9815 11.5789 18.7695 11.4226 18.6132C11.2663 18.4569 11.0543 18.3691 10.8333 18.3691Z" fill="#AE917C"></path></svg>